<?xml version="1.0" encoding="UTF-8"?>
<!-- Generator: Adobe Illustrator 19.0.0, SVG Export Plug-In . SVG Version: 6.00 Build 0)  -->
<svg enable-background="new 0 0 512 512" version="1.1" viewBox="0 0 512 512" xml:space="preserve" xmlns="http://www.w3.org/2000/svg">
<path d="m114.61 503.22c-4.2877-0.71687-11.567-3.3287-15.466-5.5488-10.224-5.8229-18.269-15.91-21.45-26.896l-1.1581-3.9998v-298.09l1.1258-4.28c1.486-5.6495 4.9483-12.55 8.3725-16.686 5.8666-7.0865 15.259-12.721 25.497-15.296 8.4607-2.1281 15.828-5.526 21.576-9.951 3.835-2.9525 9.188-8.9213 11.198-12.486 2.8398-5.0365 2.7258-4.9543 7.5355-5.4319 4.6429-0.46106 7.5263-0.25305 7.5263 0.54295 0 1.1332-4.0702 9.0643-6.555 12.773-1.469 2.1925-4.7303 6.0458-7.2473 8.5629-8.6081 8.6081-18.262 13.843-31.916 17.308-10.876 2.7595-18.346 8.5156-22.589 17.406-3.4119 7.1491-3.1761-4.4734-3.1775 156.58-0.0014 160.6-0.22911 148.95 3.0401 155.59 3.2938 6.6906 8.6132 11.853 15.826 15.358 7.9084 3.8436-4.3253 3.5702 152.82 3.4156l140.74-0.13842 3.3946-1.3207c7.9938-3.11 13.465-8.0007 16.953-15.154 3.8951-7.9886 3.6123 5.0387 3.4573-159.26-0.13095-138.79-0.18851-147.2-1.0275-150.05-1.7062-5.8-4.3146-10.326-8.1956-14.221-4.5231-4.539-8.8345-6.712-16.344-8.2378-16.924-3.4386-29.893-12.024-38.945-25.78-2.9978-4.5555-4.5047-5.7127-6.7165-5.1576-1.7201 0.43172-3.1806 2.284-3.1806 4.0337 0 1.0469 0.96376 3.0341 2.9455 6.0733 6.8244 10.466 16.369 18.781 27.418 23.885 5.1286 2.3694 9.4661 3.7327 16.885 5.307 3.2481 0.68922 6.6184 1.7451 7.822 2.4504 2.826 1.6562 6.4795 5.6346 8.0864 8.8058 3.0024 5.925 2.8242-4.4182 2.6831 155.76-0.12274 139.28-0.17467 146.82-1.028 149.32-2.0443 5.9982-7.1961 11.512-12.948 13.857l-2.7694 1.1294-139.98 0.13907c-156.03 0.15501-143.41 0.4356-149.86-3.3309-4.5883-2.6811-8.0798-6.3836-10.348-10.974l-1.9319-3.909v-295.62l1.1644-2.8826c2.7639-6.8426 8.446-12.001 15.452-14.028 14.326-4.1444 21.414-7.1136 28.574-11.97 11.316-7.6754 20.587-19.378 25.307-31.945 0.49902-1.3287 1.1556-2.31 1.4591-2.1805 0.30349 0.12943 2.4303 1.0604 4.7263 2.0688 5.5294 2.4285 9.7538 3.2636 16.563 3.2742 7.2136 0.0112 11.224-0.85628 18.399-3.9803 7.1719-3.1226 9.3903-3.6354 15.748-3.6407 6.1127-5e-3 8.6286 0.57269 14.917 3.4258 7.0476 3.1975 11.499 4.2058 18.522 4.1952 7.4209-0.0111 11.212-0.82939 18.284-3.9465 7.4712-3.2932 9.1571-3.6925 15.468-3.6637 5.9466 0.0271 9.6358 0.82226 14.007 3.0188 1.5905 0.79926 4.5912 2.0906 6.6683 2.8696 3.4368 1.289 4.388 1.4188 10.574 1.4427 7.941 0.0306 10.254-0.48382 19.189-4.2672 5.3395-2.261 6.5917-2.5894 11.736-3.0788 3.1676-0.30129 6.9677-0.39682 8.4447-0.21228l2.6855 0.33553 1.6818 3.2438c3.6999 7.1362 10.764 14.629 17.521 18.584 4.9661 2.907 10.579 4.9238 17.544 6.3037 8.9658 1.7763 14.475 4.4474 20.302 9.8425 6.0984 5.6467 10.166 12.523 12.58 21.265l1.358 4.9186 0.13257 147.27c0.14571 161.86 0.33514 151.34-2.8859 160.17-4.6656 12.784-14.633 22.054-28.214 26.24l-3.7765 1.164-141.74 0.0704c-82.093 0.0408-142.89-0.12043-144.46-0.38306zm86.424-68.072c1.4458-1.3085 1.4856-3.7903 0.0893-5.5654-0.81093-1.0309-1.4845-1.3267-3.0212-1.3267-4.6146 0-6.0919 6.0033-1.91 7.7616 1.8755 0.78859 3.2906 0.53449 4.8419-0.86946zm103.67-4.0575c3.7511-3.2266-0.33605-8.9486-4.7584-6.6617-2.5061 1.2959-2.9377 4.5576-0.87595 6.6193 1.5918 1.5918 3.8136 1.6086 5.6344 0.0423zm-84.09-35.751c2.8972-2.492 0.98285-7.3664-2.893-7.3664-4.0932 0-5.5587 6.5403-1.8044 8.053 1.8758 0.75577 3.2549 0.55421 4.6974-0.68653zm139.4-13.125c2.849-1.6696 4.6301-4.2922 5.3965-7.9458 0.51466-2.4537 0.47878-2.9728-0.28627-4.1404-1.7186-2.6229-4.7608-2.9269-6.8499-0.68455-0.56155 0.60275-1.021 1.6902-1.021 2.4166 0 2.8602-3.5577 4.5624-5.6251 2.6914-1.3229-1.1972-1.2126-3.9405 0.19827-4.9287 0.6155-0.43111 1.6225-0.78384 2.2378-0.78384s1.7431-0.53711 2.5063-1.1936c3.0611-2.633 0.97001-7.3727-3.2478-7.3615-4.0025 0.0106-8.8226 3.4115-10.496 7.406-0.9746 2.3257-0.83581 7.0493 0.27928 9.5046 1.0538 2.3204 4.1231 5.1262 6.6637 6.0918 2.6877 1.0215 7.5385 0.51389 10.245-1.072zm-203.54-30.694c2.4807-1.883 2.0381-5.9088-0.79924-7.2687-4.1621-1.9948-7.917 3.4572-4.6388 6.7354 1.3869 1.3869 3.9787 1.6411 5.4381 0.53337zm106.12-28.545c3.0452-1.3806 4.4375-2.7481 5.8523-5.7483 2.3891-5.0661 0.83946-9.3153-3.3971-9.3153-1.4598 0-3.9658 2.6801-3.9658 4.2413 0 1.65-1.6422 3.3117-3.273 3.3117-0.69236 0-1.712-0.45318-2.2659-1.0071-2.0091-2.0091-0.54039-5.5388 2.3046-5.5388 1.5612 0 4.2413-2.506 4.2413-3.9658 0-7.0872-11.366-5.4516-14.903 2.1445-2.045 4.392-1.2398 9.8496 1.9688 13.343 3.0444 3.3149 9.1689 4.4701 13.438 2.5346zm110.04-7.6538c2.8688-2.4676 0.97283-7.4098-2.8427-7.4098-2.1399 0-3.9773 1.9772-3.9773 4.28 0 3.7133 4.0048 5.5512 6.82 3.1298zm-221.26-28.958c3.2297-1.6872 5.2971-4.4263 5.929-7.8554 0.60899-3.3045-0.0982-5.2449-2.2375-6.1387-2.9753-1.2432-5.176 0.19611-5.9788 3.9101-0.39718 1.8375-1.6036 2.932-3.2215 2.9228-1.6305-9e-3 -2.2745-0.40129-3.0358-1.8476-1.0876-2.0662 0.78584-4.6906 3.3484-4.6906 0.53474 0 1.5693-0.46962 2.299-1.0436 1.652-1.2994 1.8291-4.2678 0.36259-6.0759-2.0309-2.504-8.8003-0.97144-11.889 2.6916-2.0483 2.4293-2.7564 4.5062-2.7564 8.0847 0 8.8458 9.1888 14.217 17.18 10.043zm129.81-15.53c2.2642-2.8784 0.52213-6.7298-3.0441-6.7298-2.5295 0-4.4724 1.7499-4.4724 4.0282 0 3.6792 5.2602 5.5698 7.5164 2.7015zm-59.589-13.049c0.5268-1.2608 0.561-2.0211 0.14464-3.2154-1.4866-4.2645-7.9923-3.0613-7.9923 1.4782 0 4.4676 6.139 5.8266 7.8477 1.7372zm101.96-5.7655c1.1332 0 2.4765-2.099 2.4765-3.8699 0-2.4988-1.5955-4.1866-3.9577-4.1866-3.1739 0-5.0125 3.0754-3.7717 6.309 0.38123 0.99347 3.1425 2.3212 4.12 1.981 0.36883-0.12837 0.87865-0.23341 1.133-0.23341zm-100.3-33.214c4.726-2.4315 7.7698-8.8821 5.8986-12.501-0.86153-1.666-1.697-2.1208-3.8957-2.1208-1.8681 0-3.9642 1.9968-3.9642 3.7765 0 1.4493-2.0232 3.7765-3.2832 3.7765-2.3867 0-3.965-2.3007-3.1609-4.6075 0.45592-1.3078 1.7163-2.0414 4.589-2.6707 2.851-0.62456 3.4501-5.9316 0.82813-7.3348-1.9906-1.0653-5.686-0.57052-8.5406 1.1436-6.7359 4.0448-7.5741 14.069-1.5909 19.026 3.6309 3.0076 9.0086 3.6275 13.12 1.5124zm144.06-0.20714c4.2871-2.1343 7.2942-8.1026 5.9808-11.87-0.63825-1.8309-1.7659-2.5441-4.0224-2.5441-2.1066 0-3.9679 1.7054-3.9679 3.6354 0 1.6713-1.9759 3.9176-3.446 3.9176-1.6467 0-3.2677-1.6962-3.2677-3.4194 0-2.063 0.87755-3.0288 3.1137-3.4271 2.6739-0.47625 4.1035-1.9809 4.1035-4.3189 0-3.0832-1.3919-4.0974-5.2835-3.8496-3.7922 0.24147-6.5819 1.8596-8.6852 5.0378-1.1494 1.7368-1.4172 2.7567-1.5524 5.9122-0.13882 3.2392 0.0158 4.1485 1.0267 6.0396 3.1216 5.8392 9.9179 7.915 16 4.8869zm-226.76-35.246c2.8972-2.492 0.98285-7.3664-2.893-7.3664-4.0932 0-5.5587 6.5403-1.8044 8.053 1.8758 0.75577 3.2549 0.5542 4.6974-0.68653zm156.85 0.10566c2.5237-0.75611 5.7336-3.522 7.0249-6.0532 0.5848-1.1463 1.0439-3.0871 1.0773-4.5542 0.05-2.1979-0.13459-2.7224-1.3163-3.7389-0.77962-0.6706-2.0261-1.1823-2.8799-1.1823-1.8425 0-3.9773 1.9783-3.9773 3.6857 0 0.6676-0.47938 1.8232-1.0653 2.5681-1.4079 1.7898-3.6885 1.6308-5.1687-0.36039-0.95707-1.2875-0.98284-1.5199-0.30155-2.7197 0.83095-1.4633 1.5992-1.9684 3.6531-2.4012 2.1661-0.45656 3.386-1.9916 3.386-4.2606 0-4.8352-6.8367-5.5218-11.653-1.1703-2.8229 2.5504-4.006 5.1029-4.0231 8.6801-0.0394 8.2432 7.3984 13.858 15.244 11.507zm-102.39-20.513c4.0077-2.0446 6.6139-6.0079 6.6341-10.089 0.0147-2.9701-1.419-4.5642-4.105-4.5642-2.3472 0-3.7514 1.2497-4.2218 3.7572-0.40584 2.1633-2.4197 3.9515-3.9519 3.509-1.3802-0.39858-2.8162-2.0898-2.8162-3.3167 0-1.3974 2.2451-3.446 3.7765-3.446 3.3617 0 5.0078-4.7103 2.4768-7.0875-2.4142-2.2676-8.1614-1.0613-11.357 2.3838-2.3321 2.5141-3.1708 4.6918-3.169 8.2285 3e-3 4.9344 2.5146 8.9386 6.7621 10.778 2.5445 1.1021 7.6645 1.0232 9.9714-0.15366z" fill="#fb923c" stroke="#fb923c" stroke-width="2.452"/>
	
		<path d="m225.46 204.26c-2.212 0-4 1.788-4 4 0 1.996-1.62 3.616-3.616 3.616s-3.616-1.62-3.616-3.616c0-1.992 1.62-3.612 3.616-3.612 2.212 0 4-1.788 4-4s-1.788-4-4-4c-6.404 0-11.616 5.208-11.616 11.612s5.208 11.616 11.616 11.616c6.404 0 11.616-5.212 11.616-11.616 0-2.212-1.788-4-4-4z" fill="#fdba74"/>
	


	
		<path d="m301.44 168.16c-2.212 0-4 1.788-4 4 0 1.996-1.62 3.616-3.616 3.616s-3.616-1.62-3.616-3.616 1.62-3.616 3.616-3.616c2.212 0 4-1.788 4-4s-1.788-4-4-4c-6.404 0-11.616 5.212-11.616 11.616s5.208 11.616 11.616 11.616 11.616-5.208 11.616-11.616c0-2.212-1.788-4-4-4z" fill="#fdba74"/>
	


	
		<path d="m197.56 148.28c-2.212 0-4 1.788-4 4 0 1.996-1.62 3.616-3.612 3.616-1.996 0-3.616-1.62-3.616-3.616 0-1.992 1.62-3.612 3.616-3.612 2.212 0 4-1.788 4-4s-1.788-4-4-4c-6.404 0-11.616 5.208-11.616 11.612s5.208 11.616 11.616 11.616c6.404 0 11.616-5.212 11.612-11.616 0-2.212-1.788-4-4-4z" fill="#fdba74"/>
	


	
		<path d="m369.42 204.24c-2.212 0-4 1.788-4 4 0 1.992-1.62 3.612-3.616 3.612-1.992 0-3.612-1.62-3.612-3.612 0-1.996 1.62-3.616 3.612-3.616 2.212 0 4-1.788 4-4s-1.788-4-4-4c-6.4 0-11.612 5.208-11.612 11.616 0 6.4 5.208 11.612 11.612 11.612 6.408 0 11.616-5.212 11.616-11.612 0-2.212-1.788-4-4-4z" fill="#fdba74"/>
	


	
		<path d="m265.4 308.21c-2.212 0-4 1.788-4 4 0 1.996-1.62 3.616-3.612 3.616-1.996 0-3.616-1.62-3.616-3.616s1.62-3.616 3.616-3.616c2.212 0 4-1.788 4-4s-1.788-4-4-4c-6.404 0-11.616 5.212-11.616 11.616s5.208 11.616 11.616 11.616c6.404 0 11.616-5.212 11.612-11.616 0-2.212-1.788-4-4-4z" fill="#fdba74"/>
	


	
		<path d="m153.4 272.09c-2.212 0-4 1.788-4 4 0 1.996-1.62 3.616-3.612 3.616-1.996 0-3.616-1.62-3.616-3.616s1.62-3.616 3.616-3.616c2.212 0 4-1.788 4-4s-1.788-4-4-4c-6.404 0-11.616 5.212-11.616 11.616s5.208 11.616 11.616 11.616c6.404 0 11.616-5.212 11.612-11.616 0-2.212-1.788-4-4-4z" fill="#fdba74"/>
	


	
		<path d="m361.46 368.13c-2.212 0-4 1.788-4 4 0 1.996-1.62 3.616-3.616 3.616s-3.616-1.62-3.616-3.616 1.62-3.616 3.616-3.616c2.212 0 4-1.788 4-4s-1.788-4-4-4c-6.404 0-11.616 5.212-11.616 11.616s5.208 11.616 11.616 11.616c6.404 0 11.616-5.212 11.616-11.616 0-2.212-1.788-4-4-4z" fill="#fdba74"/>
	


	
		<path d="m322.01 244.01c-2.212 0-4.02 1.808-4.02 4.02s1.808 4.016 4.02 4.016c1.516 0 2.916-0.876 3.596-2.232 0.276-0.552 0.42-1.164 0.42-1.784 0-2.212-1.804-4.02-4.016-4.02z" fill="#fdba74"/>
	


	
		<path d="m277.98 264.11c-2.212 0-4.02 1.808-4.02 4.02s1.808 4.02 4.02 4.02c1.636 0 3.12-1.016 3.732-2.536 0.188-0.472 0.284-0.976 0.284-1.484 0-2.212-1.804-4.02-4.016-4.02z" fill="#fdba74"/>
	


	
		<path d="m198.02 428.32c-2.212 0-4.02 1.808-4.02 4.02s1.808 4.016 4.02 4.016c1.256 0 2.464-0.608 3.22-1.616 0.52-0.692 0.8-1.536 0.8-2.4 0-2.212-1.808-4.02-4.02-4.02z" fill="#fdba74"/>
	


	
		<path d="m217.87 388.21c-2.212 0-4.02 1.804-4.02 4.016s1.808 4.02 4.02 4.02c1.404 0 2.724-0.76 3.448-1.96 0.376-0.624 0.572-1.332 0.572-2.06 0-2.212-1.808-4.016-4.02-4.016z" fill="#fdba74"/>
	


	
		<path d="m137.81 176.19c-2.212 0-4.016 1.808-4.016 4.02s1.804 4.016 4.016 4.016c1.512 0 2.92-0.872 3.596-2.224 0.28-0.556 0.424-1.172 0.424-1.792 0-2.212-1.808-4.02-4.02-4.02z" fill="#fdba74"/>
	


	
		<path d="m217.85 252.06c-2.212 0-4.016 1.808-4.016 4.02s1.804 4.016 4.016 4.016c1.512 0 2.916-0.868 3.596-2.224 0.28-0.556 0.424-1.172 0.424-1.792 0-2.212-1.808-4.02-4.02-4.02z" fill="#fdba74"/>
	


	
		<path d="m153.94 344.06c-2.212 0-4.02 1.808-4.02 4.02s1.808 4.016 4.02 4.016c1.516 0 2.92-0.872 3.596-2.232 0.276-0.552 0.42-1.164 0.42-1.784 0-2.212-1.804-4.02-4.016-4.02z" fill="#fdba74"/>
	


	
		<path d="m301.96 424.08c-2.212 0-4.02 1.804-4.02 4.016s1.808 4.02 4.02 4.02c1.408 0 2.728-0.756 3.448-1.96 0.376-0.624 0.572-1.332 0.572-2.06 0-2.212-1.808-4.016-4.02-4.016z" fill="#fdba74"/>
	


	
		<path d="m369.9 308.2c-2.212 0-4.016 1.804-4.016 4.016s1.804 4.016 4.016 4.016c1.512 0 2.916-0.872 3.596-2.224 0.28-0.556 0.424-1.172 0.424-1.792 0-2.212-1.808-4.016-4.02-4.016z" fill="#fdba74"/>
	



	
		<path d="M366.032,16H212c-2.212,0-4,1.788-4,4s1.788,4,4,4h154.032c0.688,0,1.968,0,1.968,3.916v8.168    C368,40,366.72,40,366.032,40h-216.24c-2.596,0-5.792-2.16-5.792-3.916v-8.168c0-1.756,3.196-3.916,5.792-3.916H180    c2.212,0,4-1.788,4-4s-1.788-4-4-4h-30.208C143.28,16,136,21.096,136,27.916v8.168C136,42.908,143.28,48,149.792,48h216.24    c4.82,0,9.968-3.128,9.968-11.916v-8.168C376,19.128,370.852,16,366.032,16z"/>
	


	
		<path d="m338.04 0h-163.92c-5.896 0-14.124 3.884-14.124 10.212v9.788c0 2.212 1.788 4 4 4s4-1.788 4-4l-0.056-9.468c0.408-0.844 3.368-2.532 6.18-2.532h163.92c1.136 0 1.956 0 1.956 2.212v9.788c0 2.212 1.788 4 4 4s4-1.788 4-4v-9.788c0-6.204-3.912-10.212-9.96-10.212z"/>
	



	
		<path d="m348 80.416v-36.416c0-2.212-1.788-4-4-4s-4 1.788-4 4v36.416c0 1.764 0.056 3.46 0.156 5.18 0.124 2.124 1.888 3.76 3.988 3.76 0.084 0 0.16-4e-3 0.244-8e-3 2.2-0.132 3.884-2.024 3.752-4.232-0.092-1.564-0.14-3.104-0.14-4.7z"/>
	


	
		<path d="m368.14 97.168c-3.324-1.276-5.676-1.236-9.572-1.212l-2.744 0.02c-9.032 0-13.544 2.088-17.908 4.108-3.696 1.708-7.184 3.328-14.168 3.772-0.236 0.016-0.46 0.048-0.684 0.104-6.312-0.136-9.48-1.696-13.124-3.484-4.3-2.108-9.168-4.504-18.752-4.504-9.444 0-14.244 2.34-18.484 4.404-3.956 1.928-7.38 3.596-14.98 3.596-7.612 0-11.104-1.672-15.156-3.608-4.3-2.06-9.18-4.392-18.604-4.392-9.42 0-14.336 2.328-18.676 4.388-4.092 1.936-7.628 3.612-15.244 3.612-7.62 0-11.176-1.676-15.288-3.616-4.356-2.056-9.292-4.384-18.708-4.384-4.224 0-7.768 0.448-11.156 1.4-2.124 0.6-3.36 2.812-2.764 4.936 0.604 2.124 2.816 3.356 4.936 2.764 2.66-0.752 5.516-1.1 8.984-1.1 7.624 0 11.18 1.676 15.292 3.616 4.356 2.056 9.288 4.384 18.704 4.384 9.42 0 14.332-2.328 18.668-4.388 4.092-1.936 7.628-3.612 15.248-3.612 7.612 0 11.104 1.672 15.156 3.608 4.3 2.06 9.18 4.392 18.604 4.392 9.448 0 14.248-2.34 18.488-4.408 3.956-1.924 7.376-3.592 14.976-3.592 7.724 0 11.2 1.708 15.224 3.684 4.12 2.024 8.784 4.316 17.588 4.316 0.424 0 0.84-0.068 1.232-0.2 7.864-0.632 12.208-2.644 16.056-4.424 3.904-1.808 7.276-3.372 14.544-3.372l2.828-0.02c3.728-0.04 4.796-0.024 6.624 0.68 2.06 0.788 4.376-0.236 5.164-2.304 0.792-2.064-0.24-4.376-2.304-5.164z"/>
	
<g stroke-width=".47578">















<path d="m147.79 39.457c-0.77927-0.25944-1.7086-0.85564-2.4547-1.5748l-1.2007-1.1573v-9.4064l0.88329-0.97769c0.4858-0.53773 1.4771-1.2461 2.2029-1.5743l1.3197-0.59657 16.491-0.12588c12.633-0.09644 16.621-0.20028 17.047-0.44397 0.30594-0.17495 0.87052-0.73013 1.2546-1.2337 0.57778-0.75751 0.69839-1.1678 0.69839-2.3755 0-1.6362-0.45463-2.4685-1.8773-3.4368-0.81115-0.55206-1.001-0.56647-7.4669-0.56647h-6.6346v-2.7304c0-3.1383-0.0131-3.1151 2.3986-4.2443l1.5038-0.70412 83.559-0.064432c61.757-0.047621 83.648 0.00969 83.901 0.21965 0.25951 0.21538 0.3423 1.1596 0.3423 3.9039v3.6198h-129.08l-0.83232 0.56647c-1.4227 0.96826-1.8773 1.8005-1.8773 3.4368 0 1.2092 0.12042 1.6178 0.70117 2.3792 0.38565 0.50561 1.0296 1.0891 1.431 1.2967 0.64385 0.33294 9.8856 0.37738 78.482 0.37738 68.894 0 77.814 0.04326 78.294 0.37972 0.89831 0.6292 1.1394 2.6119 1.0421 8.572-0.0814 4.9865-0.1247 5.4123-0.61819 6.073l-0.5307 0.71056-108.86 0.04756c-100.79 0.04403-108.95 0.01659-110.12-0.36994z" fill="#924004" stroke="#92400e"/><path d="m186.05 103.7c-4.5764-0.66536-6.067-1.1328-11.643-3.6507-2.1817-0.9852-4.001-1.8231-4.0431-1.862-0.042-0.03889 0.10266-1.0263 0.32152-2.1943 1.1802-6.2984 1.2114-6.9555 1.3201-27.831l0.10388-19.952h167.59l0.188 37.639 0.62637 1.2588c0.48035 0.96536 0.88826 1.3909 1.7497 1.8253 0.61784 0.31156 1.4676 0.56398 1.8882 0.56094 1.244-9e-3 2.77-0.84977 3.4039-1.8755l0.57686-0.93338-0.1002-38.475h11.836l0.0963 19.323c0.10096 20.254 0.14338 21.1 1.3096 26.129 0.21168 0.91278 0.38488 1.7659 0.38488 1.8957 0 0.13633-1.5696 0.23623-3.7135 0.23636-4.7851 2.52e-4 -8.6165 0.36509-11.777 1.1214-2.8418 0.68-3.8968 1.0684-8.5528 3.1489-5.9844 2.6741-9.9803 3.6205-15.232 3.6076-4.2036-0.0103-6.7116-0.67706-12.134-3.2258-2.2577-1.0612-5.2378-2.3065-6.6226-2.7673-8.548-2.8447-20.093-2.3371-28.009 1.2315-1.4193 0.63985-3.7121 1.6724-5.0952 2.2946-4.6539 2.0936-8.7425 2.8203-14.48 2.5734-5.3297-0.22931-7.4948-0.81286-13.732-3.7011-7.0653-3.2716-10.855-4.1221-18.368-4.1221-7.5036 0-11.332 0.8645-18.505 4.1788-6.1878 2.8591-8.5617 3.4463-14.477 3.5812-2.2848 0.0521-4.494 0.0453-4.9094-0.0151z" fill="#f0f9ff" stroke="#f0f9ff"/><path d="m150.18 96.175c0-0.01342 0.23485-1.0954 0.52189-2.4044 1.2696-5.7897 1.3088-6.5227 1.4232-26.612l0.10789-18.945h11.542l-8e-3 18.819c-8e-3 19.495-0.0822 21.264-1.1294 26.955-0.3267 1.7755-0.51566 2.3123-0.77847 2.2114-0.71043-0.27262-7.5989-0.42888-9.6025-0.21784-1.1424 0.12033-2.0771 0.2078-2.0771 0.19438z" fill="#f0f9ff" stroke="#f0f9ff"/></g>
	
		<path d="m399.96 144.22c-18.34-2.788-33.464-13.184-42.584-29.276-1.092-1.92-3.52-2.592-5.452-1.508-1.924 1.088-2.596 3.532-1.508 5.452 10.36 18.276 27.524 30.08 48.34 33.24 8.584 1.304 17.248 9.32 17.248 24.292v283.67c0 13.636-9.548 23.916-22.208 23.916h-272c-13.736 0-25.792-11.176-25.792-23.916v-283.67c0-18.8 14.744-23.564 19.256-24.584 35-7.852 56.744-35.22 56.744-71.416v-36.416c0-2.212-1.788-4-4-4s-4 1.788-4 4v36.416c0 32.248-19.348 56.624-50.492 63.612-12.332 2.768-25.508 12.728-25.508 32.388v283.67c0 17.304 15.476 31.916 33.792 31.916h272c17.224 0 30.208-13.72 30.212-31.916v-283.67c0-19.616-12.464-30.448-24.048-32.2z"/>
	

	
		<path d="m402.6 124.46c-21.016-3.196-34.6-20.484-34.6-44.048v-36.416c0-2.212-1.788-4-4-4h-216c-2.212 0-4 1.788-4 4v36.416c0 23.048-12.712 39.124-34.876 44.096-24.984 5.612-41.124 25.984-41.124 51.904v283.67c0 28.144 24.632 51.916 53.792 51.916h272c28.152 0 50.208-22.804 50.208-51.916v-283.67c0-26.884-17.024-48.248-41.4-51.952zm33.4 335.62c0 24.628-18.54 43.916-42.208 43.916h-272c-24.824 0-45.792-20.108-45.792-43.916v-283.67c0-26.768 18.788-40.484 34.876-44.096 25.748-5.784 41.124-25.184 41.124-51.904v-32.416h208v32.416c0 27.32 16.636 48.196 41.4 51.952 20.372 3.1 34.6 21.212 34.6 44.048v283.67z"/>
	
</svg>
