<?xml version="1.0" encoding="UTF-8" standalone="no"?>
<!-- Created with Inkscape (http://www.inkscape.org/) -->

<svg
   width="98.697861mm"
   height="41.950756mm"
   viewBox="0 0 98.697861 41.950756"
   version="1.1"
   id="svg5"
   inkscape:version="1.1.1 (3bf5ae0d25, 2021-09-20)"
   sodipodi:docname="kum-logo.svg"
   inkscape:export-filename="C:\Users\User\Documents\Szkoła\Witryny\kum-logo.png"
   inkscape:export-xdpi="263.5275"
   inkscape:export-ydpi="263.5275"
   xmlns:inkscape="http://www.inkscape.org/namespaces/inkscape"
   xmlns:sodipodi="http://sodipodi.sourceforge.net/DTD/sodipodi-0.dtd"
   xmlns="http://www.w3.org/2000/svg"
   xmlns:svg="http://www.w3.org/2000/svg">
  <sodipodi:namedview
     id="namedview7"
     pagecolor="#505050"
     bordercolor="#eeeeee"
     borderopacity="1"
     inkscape:pageshadow="0"
     inkscape:pageopacity="0"
     inkscape:pagecheckerboard="0"
     inkscape:document-units="mm"
     showgrid="false"
     inkscape:zoom="5.1241863"
     inkscape:cx="197.49477"
     inkscape:cy="81.086045"
     inkscape:window-width="2560"
     inkscape:window-height="1377"
     inkscape:window-x="-8"
     inkscape:window-y="-8"
     inkscape:window-maximized="1"
     inkscape:current-layer="layer5" />
  <defs
     id="defs2">
    <inkscape:path-effect
       effect="spiro"
       id="path-effect1479"
       is_visible="true"
       lpeversion="1" />
    <linearGradient
       id="linearGradient39894"
       inkscape:swatch="solid">
      <stop
         style="stop-color:#fb923c;stop-opacity:1;"
         offset="0"
         id="stop39892" />
    </linearGradient>
    <inkscape:path-effect
       effect="spiro"
       id="path-effect37443"
       is_visible="true"
       lpeversion="1" />
    <inkscape:path-effect
       effect="spiro"
       id="path-effect37246"
       is_visible="true"
       lpeversion="1" />
    <rect
       x="170.17336"
       y="471.4895"
       width="240.42842"
       height="96.015244"
       id="rect7874" />
    <rect
       x="99.918304"
       y="418.4079"
       width="603.4129"
       height="223.25496"
       id="rect2761" />
  </defs>
  <g
     inkscape:groupmode="layer"
     id="layer5"
     inkscape:label="Tło"
     sodipodi:insensitive="true"
     style="display:inline">
    <path
       d="m 154.77059,134.04192 q 0,0.62011 -0.62012,0.62011 -0.44648,0 -1.36426,-0.0744 -0.89297,-0.0744 -1.33945,-0.0744 -0.44649,0 -1.36426,0.0744 -0.91777,0.0744 -1.36426,0.0744 -0.62011,0 -0.62011,-0.81855 0,-3.1502 0.19843,-9.45059 0.19844,-6.30039 0.19844,-9.45058 0,-0.47129 -0.19844,-0.47129 -0.22324,0 -0.34726,0.27285 -1.26504,2.70371 -5.97793,14.43633 -0.76895,2.25722 -2.20762,5.63066 -0.17363,0.32246 -1.78594,0.32246 -2.33164,0 -2.57968,-0.42168 -0.84336,-2.00918 -2.40606,-5.63066 -2.05879,-4.91133 -6.32519,-14.63477 -0.0744,-0.17363 -0.32246,-0.34726 -0.19844,0.14883 -0.19844,0.5457 0,3.19981 0.0992,9.59941 0.12402,6.39961 0.12402,9.59942 0,0.81855 -0.62012,0.81855 -0.42168,0 -1.28984,-0.0744 -0.86816,-0.0744 -1.28984,-0.0744 -0.44649,0 -1.33946,0.0744 -0.86816,0.0744 -1.31465,0.0744 -0.62011,0 -0.62011,-0.47129 0,-2.75332 0.24804,-8.23515 0.27286,-5.50664 0.27286,-8.25996 0,-2.85254 -0.27286,-8.55762 -0.24804,-5.72988 -0.24804,-8.58242 0,-0.47129 0.57051,-0.5457 3.37343,-0.446489 5.08496,-0.446489 0.24804,0 0.69453,1.016989 6.00273,13.1961 10.31875,23.56446 1.01699,2.43086 1.21543,2.43086 0.24804,0 1.0666,-1.98438 3.37344,-8.03672 9.35137,-23.86211 0.37207,-0.967382 0.81855,-0.967382 0.84336,0 2.53008,0.09922 1.71152,0.09922 2.55488,0.09922 0.62012,0 0.62012,0.595312 0,2.85254 -0.19844,8.58242 -0.17363,5.70508 -0.17363,8.55762 0,2.72851 0.19844,8.18554 0.22324,5.45704 0.22324,8.16075 z"
       id="path34729"
       style="font-size:50.8px;line-height:1.25;font-family:'Berlin Sans FB';-inkscape-font-specification:'Berlin Sans FB';display:inline;stroke-width:0.264583"
       transform="translate(-56.072733,-93.463684)" />
    <path
       d="m 83.531522,133.49621 q 0,1.16582 -0.719336,1.16582 h -5.705078 q -0.719336,0 -3.745508,-5.2834 -2.554883,-4.46484 -3.398242,-6.44921 -0.843359,-1.90996 -0.967383,-2.13321 -0.74414,-1.24023 -1.736328,-1.31465 -0.297656,-0.0248 -1.661914,-0.0248 -3.12539,0 -3.12539,0.76895 0,2.28203 0.148828,6.82128 0.173632,4.53926 0.173632,6.79649 0,0.81855 -0.620117,0.81855 -0.471289,0 -1.413867,-0.0744 -0.942578,-0.0744 -1.413867,-0.0744 -0.446484,0 -1.339453,0.0744 -0.868164,0.0744 -1.314649,0.0744 -0.620117,0 -0.620117,-0.5705 0,-2.72852 0.248047,-8.18555 0.272852,-5.48184 0.272852,-8.21035 0,-2.87735 -0.272852,-8.63203 -0.248047,-5.7795 -0.248047,-8.65684 0,-0.545703 0.620117,-0.545703 0.446485,0 1.364258,0.07441 0.917774,0.07442 1.389063,0.07442 0.446484,0 1.339453,-0.07442 0.892969,-0.07441 1.339453,-0.07441 0.570508,0 0.570508,0.446483 0,2.1084 -0.148828,6.35 -0.124024,4.2416 -0.124024,6.37481 0,0.96738 0.124024,1.21543 0.198437,0.44648 1.016992,0.44648 4.812109,0 7.044531,-1.78594 1.909961,-1.5875 3.621484,-5.8291 1.240235,-3.32383 2.480469,-6.64766 0.173633,-0.42167 0.768945,-0.570503 0.396875,-0.09922 2.629297,-0.09922 2.728516,0 2.728516,0.768943 0,0.44649 -1.141016,4.01836 -1.339453,4.16719 -3.472656,7.34219 -1.413867,2.15801 -3.745508,4.34082 -0.595312,0.5209 -0.595312,0.94258 0,0.44648 2.009179,4.44004 1.736328,3.44785 3.150196,5.53144 1.562695,1.90996 4.365624,5.87871 0.124024,0.22325 0.124024,0.47129 z"
       id="path376"
       style="font-size:50.8px;line-height:1.25;font-family:'Berlin Sans FB';-inkscape-font-specification:'Berlin Sans FB';display:inline;stroke-width:0.264583"
       transform="translate(-56.072733,-93.463684)" />
    <rect
       style="font-size:50.8px;line-height:1.25;font-family:'Berlin Sans FB';-inkscape-font-specification:'Berlin Sans FB';display:inline;opacity:1;mix-blend-mode:normal;fill:#db2777;fill-opacity:1;stroke:none;stroke-width:0.205;stroke-miterlimit:4;stroke-dasharray:none;stroke-opacity:1"
       id="rect40586"
       width="1.3"
       height="15.77271"
       x="127.22839"
       y="62.669983"
       transform="rotate(15,326.92722,-259.68918)" />
    <path
       style="font-size:50.8px;line-height:1.25;font-family:'Berlin Sans FB';-inkscape-font-specification:'Berlin Sans FB';display:inline;opacity:1;mix-blend-mode:normal;fill:#fb923c;fill-opacity:1;stroke:#fb923c;stroke-width:0.0516341;stroke-opacity:1"
       d="m 375.48974,491.68607 c -7.57128,-0.42326 -13.28673,-1.81388 -16.74177,-4.07341 -4.04611,-2.64608 -6.57123,-7.17281 -7.79644,-13.97648 -0.45481,-2.5256 -0.45683,-2.60797 -0.45038,-18.34438 0.006,-14.87403 0.35508,-40.06455 0.59805,-43.16799 l 0.11001,-1.40527 0.91123,-0.15596 c 0.50117,-0.0858 2.75542,-0.15025 5.00943,-0.14328 3.7536,0.0116 4.47564,0.0735 8.58673,0.73554 8.62287,1.3887 11.38798,1.39528 21.46682,0.0511 7.7958,-1.03968 8.90346,-1.13811 12.78252,-1.13594 3.47648,0.002 8.47728,0.46216 8.84315,0.81384 0.33764,0.32453 1.00137,56.40513 0.71485,60.39946 -0.40524,5.64928 -1.63628,9.5158 -4.08467,12.82934 -2.54237,3.44071 -6.98842,5.73127 -13.18187,6.79115 -4.35302,0.74494 -11.48404,1.07761 -16.76766,0.78224 z"
       id="path38514"
       transform="matrix(0.26458333,0,0,0.26458333,-56.072733,-93.463684)" />
    <path
       style="font-size:50.8px;line-height:1.25;font-family:'Berlin Sans FB';-inkscape-font-specification:'Berlin Sans FB';display:inline;opacity:1;mix-blend-mode:normal;fill:none;stroke:#fb923c;stroke-width:0.404394px;stroke-linecap:butt;stroke-linejoin:miter;stroke-opacity:1"
       d="m 90.95435,109.74904 c 0.386451,-0.5995 0.936867,-1.09216 1.575375,-1.41006 0.638507,-0.31789 1.36337,-0.46016 2.074668,-0.4072 0.739634,0.0551 1.44704,0.31418 2.139749,0.57922 0.692708,0.26504 1.391169,0.54094 2.127203,0.63229 1.109516,0.13771 2.225395,-0.15262 3.289605,-0.49535 1.0642,-0.34273 2.12524,-0.74379 3.23935,-0.8373 1.65445,-0.13886 3.35696,0.44718 4.5754,1.57495"
       id="path37441"
       inkscape:path-effect="#path-effect37443"
       inkscape:original-d="m 90.95435,109.74904 c 1.182669,-0.56476 2.433625,-1.21088 3.650043,-1.81726 1.216416,-0.60636 2.844898,0.8083 4.266952,1.21151 1.422055,0.40321 4.352905,-0.88782 6.528955,-1.33265 2.17605,-0.44484 3.05054,1.05058 4.5754,1.57495"
       transform="translate(-56.072733,-93.463684)" />
    <circle
       style="font-size:50.8px;line-height:1.25;font-family:'Berlin Sans FB';-inkscape-font-specification:'Berlin Sans FB';display:inline;mix-blend-mode:normal;fill:#fdba74;fill-opacity:1;stroke:none;stroke-width:0.105006;stroke-opacity:1"
       id="path38728-0-4"
       cx="97.562843"
       cy="124.7999"
       r="1.5"
       transform="translate(-56.072733,-93.463684)" />
    <circle
       style="font-size:50.8px;line-height:1.25;font-family:'Berlin Sans FB';-inkscape-font-specification:'Berlin Sans FB';display:inline;mix-blend-mode:normal;fill:#fdba74;fill-opacity:1;stroke:none;stroke-width:0.0350021;stroke-opacity:1"
       id="path38728-7-9"
       cx="102.26156"
       cy="124.77408"
       r="0.5"
       inkscape:transform-center-x="-0.02581713"
       inkscape:transform-center-y="0.19362831"
       transform="translate(-56.072733,-93.463684)" />
    <ellipse
       style="font-size:50.8px;line-height:1.25;font-family:'Berlin Sans FB';-inkscape-font-specification:'Berlin Sans FB';display:inline;opacity:1;mix-blend-mode:normal;fill:#fdba74;fill-opacity:1;stroke:none;stroke-width:0.0700042;stroke-opacity:1"
       id="path39552"
       cx="101.49995"
       cy="115.3121"
       rx="0.06454277"
       ry="0.1678112"
       transform="translate(-56.072733,-93.463684)" />
    <path
       style="font-size:50.8px;line-height:1.25;font-family:'Berlin Sans FB';-inkscape-font-specification:'Berlin Sans FB';display:inline;opacity:1;mix-blend-mode:normal;fill:#fb923c;fill-opacity:1;stroke:#fb923c;stroke-width:0.5;stroke-miterlimit:4;stroke-dasharray:none;stroke-opacity:1"
       d="m 96.585354,108.72479 c -0.471752,-0.0776 -0.861978,-0.1245 -1.20486,-0.14473 -0.575164,-0.034 -1.978517,-0.0164 -2.250763,0.0282 l -0.07836,0.0128 0.0053,-0.15228 0.0053,-0.15227 0.160197,-0.051 c 0.236861,-0.0754 0.573191,-0.1379 0.862108,-0.16024 0.533207,-0.0412 1.10195,0.0451 1.807856,0.27428 0.233394,0.0758 1.048943,0.37635 1.065138,0.39254 0.01384,0.0138 -0.04792,0.006 -0.371996,-0.0473 z"
       id="path39693"
       transform="translate(-56.072733,-93.463684)" />
    <path
       style="font-size:50.8px;line-height:1.25;font-family:'Berlin Sans FB';-inkscape-font-specification:'Berlin Sans FB';display:inline;opacity:1;mix-blend-mode:normal;fill:#fb923c;fill-opacity:1;stroke:#fb923c;stroke-width:1.88976;stroke-miterlimit:4;stroke-dasharray:none;stroke-opacity:1"
       d="m 387.74449,410.83071 c 3.08943,-1.02469 4.51651,-1.46407 5.97656,-1.84009 3.7915,-0.97646 6.81251,-1.1544 10.12457,-0.59635 1.45084,0.24445 2.91353,0.64716 4.31634,1.18838 l 0.3655,0.14102 0.0173,0.0975 c 0.01,0.0536 0.0179,0.28258 0.0187,0.50874 10e-4,0.37157 -0.002,0.40973 -0.0386,0.39585 -0.16063,-0.0616 -1.01862,-0.2023 -1.78952,-0.29338 -3.445,-0.40701 -7.89276,-0.51476 -11.11152,-0.26919 -1.48264,0.11312 -3.27397,0.32193 -7.11015,0.82883 -1.06624,0.14089 -1.9554,0.25507 -1.97593,0.25373 -0.0205,-10e-4 0.52252,-0.18813 1.20678,-0.41508 z"
       id="path40091"
       transform="matrix(0.26458333,0,0,0.26458333,-56.072733,-93.463684)" />
    <path
       d="m 114.78544,100.40676 q 0,2.87734 -0.24805,8.63203 -0.22324,5.72988 -0.22324,8.60723 0,0.94258 0.0248,2.82773 0.0248,1.86035 0.0248,2.77813 0,5.18418 -0.96738,7.19336 -1.48829,3.07578 -5.77951,4.16718 -2.62928,0.66973 -7.4166,0.66973 -8.681636,0 -11.385349,-2.87734 -2.083594,-2.23243 -2.083594,-8.92969 0,-0.81856 0.02481,-2.75332 0.02481,-1.95957 0.02481,-3.07578 0,-2.92696 -0.248047,-10.79004 0,-2.03399 -0.223242,-6.07715 -0.02481,-0.29766 -0.02481,-0.39687 0,-0.520903 0.644922,-0.520903 1.016993,0 2.753321,0.02481 2.00918,0.0248 2.728517,0.0248 0.570509,0 0.570509,0.446483 0,3.77031 -0.173634,11.33574 -0.148827,7.56543 -0.148827,11.33574 0,4.26641 1.909961,5.7795 1.63711,1.33945 6.027543,1.33945 3.99355,0 5.68027,-1.09141 2.1332,-1.36425 2.1332,-5.10976 0,-3.91914 -0.12401,-11.75742 -0.12403,-7.86309 -0.12403,-11.78223 0,-0.39687 0.71933,-0.496093 0.5209,-0.07441 1.48829,0 1.14102,0.09922 1.0914,0.09922 0.44649,0 1.33945,-0.07442 0.91779,-0.07441 1.36427,-0.07441 0.62011,0 0.62011,0.545703 z"
       style="font-size:50.8px;line-height:1.25;font-family:'Berlin Sans FB';-inkscape-font-specification:'Berlin Sans FB';display:inline;mix-blend-mode:normal;fill:#a855f7;stroke:#a855f7;stroke-width:0.264583;stroke-opacity:1"
       id="path34727"
       transform="translate(-56.072733,-93.463684)" />
    <rect
       style="font-size:50.8px;line-height:1.25;font-family:'Berlin Sans FB';-inkscape-font-specification:'Berlin Sans FB';display:inline;opacity:1;mix-blend-mode:normal;fill:#db2777;fill-opacity:1;stroke:none;stroke-width:0.205;stroke-miterlimit:4;stroke-dasharray:none;stroke-opacity:1"
       id="rect40734"
       width="5"
       height="1.3"
       x="127.22839"
       y="62.669983"
       transform="rotate(15,326.92722,-259.68918)" />
    <circle
       style="font-size:50.8px;line-height:1.25;font-family:'Berlin Sans FB';-inkscape-font-specification:'Berlin Sans FB';display:inline;mix-blend-mode:normal;fill:#fdba74;fill-opacity:1;stroke:none;stroke-width:0.17501;stroke-opacity:1"
       id="path38728-6"
       cx="103.31065"
       cy="119.24767"
       r="2.5"
       transform="translate(-56.072733,-93.463684)" />
    <circle
       style="font-size:50.8px;line-height:1.25;font-family:'Berlin Sans FB';-inkscape-font-specification:'Berlin Sans FB';display:inline;mix-blend-mode:normal;fill:#fdba74;fill-opacity:1;stroke:none;stroke-width:0.17501;stroke-opacity:1"
       id="path38728-6-4"
       cx="103.34588"
       cy="125.88422"
       r="2.5"
       transform="translate(-56.072733,-93.463684)" />
    <circle
       style="font-size:50.8px;line-height:1.25;font-family:'Berlin Sans FB';-inkscape-font-specification:'Berlin Sans FB';display:inline;mix-blend-mode:normal;fill:#fdba74;fill-opacity:1;stroke:none;stroke-width:0.105006;stroke-opacity:1"
       id="path38728-0"
       cx="98.321022"
       cy="117.14169"
       r="1.5"
       transform="translate(-56.072733,-93.463684)" />
    <circle
       style="font-size:50.8px;line-height:1.25;font-family:'Berlin Sans FB';-inkscape-font-specification:'Berlin Sans FB';display:inline;mix-blend-mode:normal;fill:#fdba74;fill-opacity:1;stroke:none;stroke-width:0.105006;stroke-opacity:1"
       id="path38728-0-4-2"
       cx="95.394211"
       cy="119.86882"
       r="1.5"
       transform="translate(-56.072733,-93.463684)" />
    <circle
       style="font-size:50.8px;line-height:1.25;font-family:'Berlin Sans FB';-inkscape-font-specification:'Berlin Sans FB';display:inline;mix-blend-mode:normal;fill:#fdba74;fill-opacity:1;stroke:none;stroke-width:0.0700042;stroke-opacity:1"
       id="path38728-01"
       cx="101.33215"
       cy="114.75704"
       r="1"
       inkscape:transform-center-x="-0.15490264"
       inkscape:transform-center-y="-1.1359527"
       transform="translate(-56.072733,-93.463684)" />
    <circle
       style="font-size:50.8px;line-height:1.25;font-family:'Berlin Sans FB';-inkscape-font-specification:'Berlin Sans FB';display:inline;mix-blend-mode:normal;fill:#fdba74;fill-opacity:1;stroke:none;stroke-width:0.0700042;stroke-opacity:1"
       id="path38728-01-72"
       cx="95.471664"
       cy="116.02208"
       r="1"
       inkscape:transform-center-x="-0.15490264"
       inkscape:transform-center-y="-1.1359527"
       transform="translate(-56.072733,-93.463684)" />
    <circle
       style="font-size:50.8px;line-height:1.25;font-family:'Berlin Sans FB';-inkscape-font-specification:'Berlin Sans FB';display:inline;mix-blend-mode:normal;fill:#fdba74;fill-opacity:1;stroke:none;stroke-width:0.0700042;stroke-opacity:1"
       id="path38728-01-7"
       cx="104.86909"
       cy="115.66064"
       r="1"
       inkscape:transform-center-x="-0.15490264"
       inkscape:transform-center-y="-1.1359527"
       transform="translate(-56.072733,-93.463684)" />
    <circle
       style="font-size:50.8px;line-height:1.25;font-family:'Berlin Sans FB';-inkscape-font-specification:'Berlin Sans FB';display:inline;mix-blend-mode:normal;fill:#fdba74;fill-opacity:1;stroke:none;stroke-width:0.0350021;stroke-opacity:1"
       id="path38728-7"
       cx="99.179871"
       cy="111.00409"
       r="0.5"
       inkscape:transform-center-x="-0.02581713"
       inkscape:transform-center-y="0.19362831"
       transform="translate(-56.072733,-93.463684)" />
    <circle
       style="font-size:50.8px;line-height:1.25;font-family:'Berlin Sans FB';-inkscape-font-specification:'Berlin Sans FB';display:inline;mix-blend-mode:normal;fill:#fdba74;fill-opacity:1;stroke:none;stroke-width:0.0350021;stroke-opacity:1"
       id="path38728-7-4"
       cx="98.00174"
       cy="113.36292"
       r="0.5"
       inkscape:transform-center-x="-0.02581713"
       inkscape:transform-center-y="0.19362831"
       transform="translate(-56.072733,-93.463684)" />
    <circle
       style="font-size:50.8px;line-height:1.25;font-family:'Berlin Sans FB';-inkscape-font-specification:'Berlin Sans FB';display:inline;mix-blend-mode:normal;fill:#fdba74;fill-opacity:1;stroke:none;stroke-width:0.0350021;stroke-opacity:1"
       id="path38728-7-0"
       cx="99.860573"
       cy="112.66586"
       r="0.5"
       inkscape:transform-center-x="-0.02581713"
       inkscape:transform-center-y="0.19362831"
       transform="translate(-56.072733,-93.463684)" />
    <circle
       style="font-size:50.8px;line-height:1.25;font-family:'Berlin Sans FB';-inkscape-font-specification:'Berlin Sans FB';display:inline;mix-blend-mode:normal;fill:#fdba74;fill-opacity:1;stroke:none;stroke-width:0.0350021;stroke-opacity:1"
       id="path38728-7-1"
       cx="99.370049"
       cy="114.70541"
       r="0.5"
       inkscape:transform-center-x="-0.02581713"
       inkscape:transform-center-y="0.19362831"
       transform="translate(-56.072733,-93.463684)" />
    <circle
       style="font-size:50.8px;line-height:1.25;font-family:'Berlin Sans FB';-inkscape-font-specification:'Berlin Sans FB';display:inline;mix-blend-mode:normal;fill:#fdba74;fill-opacity:1;stroke:none;stroke-width:0.0350021;stroke-opacity:1"
       id="path38728-7-12"
       cx="97.769386"
       cy="119.94628"
       r="0.5"
       inkscape:transform-center-x="-0.02581713"
       inkscape:transform-center-y="0.19362831"
       transform="translate(-56.072733,-93.463684)" />
    <circle
       style="font-size:50.8px;line-height:1.25;font-family:'Berlin Sans FB';-inkscape-font-specification:'Berlin Sans FB';display:inline;mix-blend-mode:normal;fill:#fdba74;fill-opacity:1;stroke:none;stroke-width:0.0350021;stroke-opacity:1"
       id="path38728-7-01"
       cx="99.602402"
       cy="121.7793"
       r="0.5"
       inkscape:transform-center-x="-0.02581713"
       inkscape:transform-center-y="0.19362831"
       transform="translate(-56.072733,-93.463684)" />
    <circle
       style="font-size:50.8px;line-height:1.25;font-family:'Berlin Sans FB';-inkscape-font-specification:'Berlin Sans FB';display:inline;mix-blend-mode:normal;fill:#fdba74;fill-opacity:1;stroke:none;stroke-width:0.0350021;stroke-opacity:1"
       id="path38728-7-5"
       cx="97.123955"
       cy="127.35579"
       r="0.5"
       inkscape:transform-center-x="-0.02581713"
       inkscape:transform-center-y="0.19362831"
       transform="translate(-56.072733,-93.463684)" />
    <circle
       style="font-size:50.8px;line-height:1.25;font-family:'Berlin Sans FB';-inkscape-font-specification:'Berlin Sans FB';display:inline;mix-blend-mode:normal;fill:#fdba74;fill-opacity:1;stroke:none;stroke-width:0.0350021;stroke-opacity:1"
       id="path38728-7-6"
       cx="102.72627"
       cy="128.95645"
       r="0.5"
       inkscape:transform-center-x="-0.02581713"
       inkscape:transform-center-y="0.19362831"
       transform="translate(-56.072733,-93.463684)" />
    <circle
       style="font-size:50.8px;line-height:1.25;font-family:'Berlin Sans FB';-inkscape-font-specification:'Berlin Sans FB';display:inline;mix-blend-mode:normal;fill:#fdba74;fill-opacity:1;stroke:none;stroke-width:0.0350021;stroke-opacity:1"
       id="path38728-7-15"
       cx="100.29946"
       cy="127.02016"
       r="0.5"
       inkscape:transform-center-x="-0.02581713"
       inkscape:transform-center-y="0.19362831"
       transform="translate(-56.072733,-93.463684)" />
    <circle
       style="font-size:50.8px;line-height:1.25;font-family:'Berlin Sans FB';-inkscape-font-specification:'Berlin Sans FB';display:inline;mix-blend-mode:normal;fill:#fdba74;fill-opacity:1;stroke:none;stroke-width:0.0350021;stroke-opacity:1"
       id="path38728-7-011"
       cx="99.963837"
       cy="129.16299"
       r="0.5"
       inkscape:transform-center-x="-0.02581713"
       inkscape:transform-center-y="0.19362831"
       transform="translate(-56.072733,-93.463684)" />
    <circle
       style="font-size:50.8px;line-height:1.25;font-family:'Berlin Sans FB';-inkscape-font-specification:'Berlin Sans FB';display:inline;mix-blend-mode:normal;fill:#fdba74;fill-opacity:1;stroke:none;stroke-width:0.0350021;stroke-opacity:1"
       id="path38728-7-75"
       cx="100.63509"
       cy="122.55381"
       r="0.5"
       inkscape:transform-center-x="-0.02581713"
       inkscape:transform-center-y="0.19362831"
       transform="translate(-56.072733,-93.463684)" />
    <circle
       style="font-size:50.8px;line-height:1.25;font-family:'Berlin Sans FB';-inkscape-font-specification:'Berlin Sans FB';display:inline;mix-blend-mode:normal;fill:#fdba74;fill-opacity:1;stroke:none;stroke-width:0.0350021;stroke-opacity:1"
       id="path38728-7-48"
       cx="103.78477"
       cy="122.63126"
       r="0.5"
       inkscape:transform-center-x="-0.02581713"
       inkscape:transform-center-y="0.19362831"
       transform="translate(-56.072733,-93.463684)" />
    <circle
       style="font-size:50.8px;line-height:1.25;font-family:'Berlin Sans FB';-inkscape-font-specification:'Berlin Sans FB';display:inline;mix-blend-mode:normal;fill:#fdba74;fill-opacity:1;stroke:none;stroke-width:0.0350021;stroke-opacity:1"
       id="path38728-7-65"
       cx="97.175591"
       cy="125.18715"
       r="0.5"
       inkscape:transform-center-x="-0.02581713"
       inkscape:transform-center-y="0.19362831"
       transform="translate(-56.072733,-93.463684)" />
    <circle
       style="font-size:50.8px;line-height:1.25;font-family:'Berlin Sans FB';-inkscape-font-specification:'Berlin Sans FB';display:inline;mix-blend-mode:normal;fill:#fdba74;fill-opacity:1;stroke:none;stroke-width:0.0350021;stroke-opacity:1"
       id="path38728-7-8"
       cx="97.562851"
       cy="121.90838"
       r="0.5"
       inkscape:transform-center-x="-0.02581713"
       inkscape:transform-center-y="0.19362831"
       transform="translate(-56.072733,-93.463684)" />
    <circle
       style="font-size:50.8px;line-height:1.25;font-family:'Berlin Sans FB';-inkscape-font-specification:'Berlin Sans FB';display:inline;opacity:1;mix-blend-mode:normal;fill:#fdba74;fill-opacity:1;stroke:none;stroke-width:0.122507;stroke-opacity:1"
       id="path38728"
       cx="95.205582"
       cy="111.36954"
       r="1.75"
       transform="translate(-56.072733,-93.463684)" />
    <circle
       style="font-size:50.8px;line-height:1.25;font-family:'Berlin Sans FB';-inkscape-font-specification:'Berlin Sans FB';display:inline;mix-blend-mode:normal;fill:#fdba74;fill-opacity:1;stroke:none;stroke-width:0.105006;stroke-opacity:1"
       id="path38728-0-4-5"
       cx="103.50078"
       cy="111.40082"
       r="1.5"
       transform="translate(-56.072733,-93.463684)" />
  </g>
</svg>
