<?xml version="1.0" encoding="UTF-8" standalone="no"?>
<!-- Generator: Adobe Illustrator 19.0.0, SVG Export Plug-In . SVG Version: 6.00 Build 0)  -->

<svg
   version="1.1"
   id="Layer_1"
   x="0px"
   y="0px"
   viewBox="0 0 512 512"
   style="enable-background:new 0 0 512 512;"
   xml:space="preserve"
   sodipodi:docname="kum-jar.svg"
   inkscape:version="1.1.1 (3bf5ae0d25, 2021-09-20)"
   xmlns:inkscape="http://www.inkscape.org/namespaces/inkscape"
   xmlns:sodipodi="http://sodipodi.sourceforge.net/DTD/sodipodi-0.dtd"
   xmlns="http://www.w3.org/2000/svg"
   xmlns:svg="http://www.w3.org/2000/svg"><defs
   id="defs167"><rect
     x="112.86787"
     y="221.10709"
     width="295.52156"
     height="94.709318"
     id="rect4131" /></defs><sodipodi:namedview
   id="namedview165"
   pagecolor="#505050"
   bordercolor="#eeeeee"
   borderopacity="1"
   inkscape:pageshadow="0"
   inkscape:pageopacity="0"
   inkscape:pagecheckerboard="0"
   showgrid="false"
   inkscape:zoom="1.4042969"
   inkscape:cx="354.98192"
   inkscape:cy="149.18498"
   inkscape:window-width="2560"
   inkscape:window-height="1377"
   inkscape:window-x="-8"
   inkscape:window-y="-8"
   inkscape:window-maximized="1"
   inkscape:current-layer="Layer_1" />
<path
   style="fill:#fb923c;stroke-width:2.452;fill-opacity:1;stroke:#fb923c;stroke-opacity:1;stroke-miterlimit:4;stroke-dasharray:none"
   d="m 114.61035,503.21751 c -4.28766,-0.71687 -11.56745,-3.32874 -15.465707,-5.54885 -10.224344,-5.82291 -18.268881,-15.9099 -21.449834,-26.89582 l -1.158122,-3.99975 V 317.72796 168.68283 l 1.125813,-4.28001 c 1.486046,-5.64952 4.948324,-12.54956 8.372503,-16.68573 5.866638,-7.08649 15.258557,-12.72086 25.497077,-15.29613 8.46072,-2.12809 15.82804,-5.52602 21.5757,-9.95104 3.83495,-2.95247 9.18804,-8.92126 11.19794,-12.48591 2.8398,-5.0365 2.72581,-4.95433 7.53547,-5.43194 4.64293,-0.46106 7.52632,-0.25305 7.52632,0.54295 0,1.13319 -4.0702,9.06434 -6.55503,12.77308 -1.46897,2.1925 -4.73027,6.04579 -7.24734,8.56286 -8.60811,8.60811 -18.26161,13.84299 -31.91644,17.30759 -10.87589,2.75951 -18.345978,8.51556 -22.588864,17.40576 -3.411937,7.1491 -3.176085,-4.47337 -3.177519,156.58365 -0.0014,160.59737 -0.229108,148.94531 3.0401,155.58601 3.293787,6.69063 8.613162,11.85281 15.826123,15.35844 7.90839,3.84362 -4.32527,3.57019 152.82161,3.41564 l 140.73687,-0.13842 3.39457,-1.32067 c 7.99378,-3.11 13.46515,-8.00072 16.95281,-15.1537 3.89512,-7.98865 3.61231,5.03869 3.45729,-159.25789 -0.13095,-138.79375 -0.18851,-147.20027 -1.02747,-150.05219 -1.70619,-5.79997 -4.31464,-10.32602 -8.1956,-14.2206 -4.52309,-4.53897 -8.83449,-6.71205 -16.34396,-8.23785 -16.92357,-3.4386 -29.89294,-12.02375 -38.94532,-25.78008 -2.99776,-4.55552 -4.50472,-5.7127 -6.71652,-5.15757 -1.7201,0.43172 -3.18065,2.28398 -3.18065,4.03368 0,1.04693 0.96376,3.03409 2.94554,6.07331 6.8244,10.46578 16.36895,18.78057 27.41775,23.88513 5.12861,2.36943 9.46608,3.73269 16.88519,5.30699 3.24807,0.68922 6.61844,1.74506 7.82205,2.45042 2.82602,1.65616 6.47948,5.63463 8.08643,8.80579 3.00241,5.92497 2.82423,-4.41823 2.68308,155.75544 -0.12274,139.27623 -0.17467,146.81939 -1.02797,149.32304 -2.04432,5.99819 -7.19608,11.5116 -12.9484,13.85736 l -2.76942,1.12936 -139.98157,0.13907 c -156.03439,0.15501 -143.41075,0.4356 -149.85651,-3.33086 -4.58828,-2.68108 -8.07976,-6.38362 -10.348491,-10.97409 l -1.931928,-3.909 V 317.50231 169.68989 l 1.164369,-2.8826 c 2.76392,-6.84256 8.44597,-12.00075 15.45215,-14.02755 14.32643,-4.14444 21.41445,-7.11363 28.5743,-11.96985 11.31627,-7.67535 20.58666,-19.37765 25.3067,-31.94544 0.49902,-1.32872 1.15562,-2.30997 1.45912,-2.18054 0.30349,0.12943 2.43034,1.06038 4.72634,2.06878 5.52944,2.42854 9.75382,3.26361 16.56319,3.27418 7.21365,0.0112 11.22355,-0.85628 18.39876,-3.98028 7.17194,-3.12258 9.39032,-3.63543 15.74837,-3.64074 6.11271,-0.005 8.62863,0.57269 14.91714,3.42579 7.04762,3.19751 11.4991,4.20575 18.52233,4.19523 7.42093,-0.0111 11.21189,-0.82939 18.28363,-3.94649 7.47125,-3.2932 9.15707,-3.6925 15.46787,-3.66369 5.94657,0.0271 9.63585,0.82226 14.00685,3.01875 1.59051,0.79926 4.59125,2.0906 6.66831,2.86965 3.43675,1.28904 4.38801,1.41882 10.57415,1.44266 7.94104,0.0306 10.25428,-0.48382 19.18912,-4.26718 5.33948,-2.26095 6.59171,-2.58944 11.73645,-3.0788 3.16757,-0.30129 6.96768,-0.39682 8.4447,-0.21228 l 2.68548,0.33553 1.68183,3.2438 c 3.69994,7.13619 10.76374,14.62863 17.52097,18.58416 4.9661,2.90704 10.57898,4.9238 17.54403,6.30372 8.96585,1.77633 14.47538,4.44738 20.30202,9.84253 6.09835,5.64673 10.16647,12.52339 12.58005,21.26503 l 1.35802,4.91857 0.13257,147.27342 c 0.14571,161.85801 0.33514,151.34409 -2.88593,160.17005 -4.66556,12.78393 -14.63281,22.05384 -28.21378,26.23984 l -3.77648,1.16401 -141.74393,0.0704 c -82.09309,0.0408 -142.88538,-0.12043 -144.45627,-0.38306 z m 86.42434,-68.07238 c 1.44581,-1.30847 1.48564,-3.7903 0.0893,-5.56542 -0.81093,-1.03093 -1.48451,-1.32673 -3.02118,-1.32673 -4.61455,0 -6.09187,6.00327 -1.91002,7.76161 1.87551,0.78859 3.29057,0.53449 4.84187,-0.86946 z m 103.6741,-4.05748 c 3.75113,-3.22659 -0.33605,-8.9486 -4.75841,-6.66171 -2.50606,1.29593 -2.93769,4.55761 -0.87595,6.61934 1.59184,1.59184 3.81356,1.60855 5.63436,0.0423 z m -84.08965,-35.75069 c 2.89717,-2.49204 0.98285,-7.36645 -2.89302,-7.36645 -4.09325,0 -5.55868,6.54033 -1.80436,8.05298 1.87579,0.75577 3.25493,0.55421 4.69738,-0.68653 z m 139.39664,-13.1253 c 2.84899,-1.66961 4.63014,-4.29219 5.3965,-7.94581 0.51466,-2.45369 0.47878,-2.97278 -0.28627,-4.14039 -1.7186,-2.6229 -4.76079,-2.92693 -6.84988,-0.68455 -0.56155,0.60275 -1.021,1.69023 -1.021,2.41661 0,2.86016 -3.55767,4.56236 -5.62507,2.69138 -1.32292,-1.19722 -1.21256,-3.94053 0.19827,-4.92872 0.6155,-0.43111 1.62252,-0.78384 2.23781,-0.78384 0.61529,0 1.74314,-0.53711 2.50632,-1.19358 3.06107,-2.63301 0.97001,-7.37268 -3.24777,-7.36153 -4.00249,0.0106 -8.82259,3.4115 -10.49649,7.40599 -0.9746,2.32573 -0.83581,7.04927 0.27928,9.50459 1.05381,2.32038 4.12308,5.12623 6.66371,6.09182 2.68769,1.02147 7.53853,0.51389 10.24459,-1.07197 z M 156.47444,351.51725 c 2.48074,-1.88297 2.03807,-5.90883 -0.79924,-7.26872 -4.16207,-1.99483 -7.91702,3.45717 -4.63883,6.73535 1.38691,1.38691 3.97866,1.64112 5.43807,0.53337 z m 106.11689,-28.54453 c 3.04523,-1.38058 4.43751,-2.7481 5.85233,-5.74829 2.38906,-5.06611 0.83946,-9.31532 -3.3971,-9.31532 -1.45982,0 -3.96582,2.68006 -3.96582,4.24128 0,1.65003 -1.64222,3.31168 -3.27295,3.31168 -0.69236,0 -1.71201,-0.45318 -2.26589,-1.00706 -2.00907,-2.00908 -0.54039,-5.53884 2.30462,-5.53884 1.56122,0 4.24128,-2.506 4.24128,-3.96582 0,-7.08716 -11.36648,-5.45157 -14.90342,2.14453 -2.04504,4.39203 -1.2398,9.8496 1.96876,13.34326 3.04441,3.31493 9.16893,4.47008 13.43819,2.53458 z m 110.04377,-7.65385 c 2.86881,-2.46765 0.97283,-7.40976 -2.84267,-7.40976 -2.13993,0 -3.97728,1.97719 -3.97728,4.28001 0,3.71332 4.00485,5.55119 6.81995,3.12975 z M 151.3708,286.36133 c 3.2297,-1.68722 5.2971,-4.42631 5.92905,-7.85539 0.60899,-3.30452 -0.0982,-5.24488 -2.2375,-6.13871 -2.97529,-1.24316 -5.17602,0.19611 -5.9788,3.91011 -0.39718,1.83748 -1.60358,2.93205 -3.22146,2.9228 -1.63047,-0.009 -2.27453,-0.40129 -3.03579,-1.84757 -1.08758,-2.06622 0.78584,-4.69062 3.3484,-4.69062 0.53474,0 1.56929,-0.46962 2.29899,-1.04361 1.65195,-1.29942 1.82909,-4.26783 0.36259,-6.07592 -2.03092,-2.50398 -8.80027,-0.97144 -11.88886,2.69155 -2.04832,2.42926 -2.75645,4.50622 -2.75645,8.08468 0,8.84582 9.1888,14.21724 17.17983,10.04268 z m 129.81463,-15.52965 c 2.26419,-2.87845 0.52213,-6.72976 -3.04407,-6.72976 -2.52953,0 -4.47235,1.7499 -4.47235,4.02825 0,3.67923 5.26021,5.56983 7.51642,2.70151 z m -59.58891,-13.04904 c 0.5268,-1.26079 0.561,-2.02108 0.14464,-3.21544 -1.48662,-4.26453 -7.99232,-3.06127 -7.99232,1.47823 0,4.46761 6.13904,5.82659 7.84768,1.73721 z m 101.96323,-5.76546 c 1.13322,0 2.47647,-2.09905 2.47647,-3.86991 0,-2.49881 -1.59549,-4.18658 -3.95768,-4.18658 -3.17391,0 -5.0125,3.07545 -3.77169,6.30895 0.38123,0.99347 3.14252,2.32115 4.11995,1.98095 0.36883,-0.12837 0.87865,-0.23341 1.13295,-0.23341 z M 223.26309,218.80323 c 4.72605,-2.43154 7.76983,-8.88212 5.89861,-12.50067 -0.86153,-1.66601 -1.69695,-2.12081 -3.89572,-2.12081 -1.86813,0 -3.96418,1.99681 -3.96418,3.77649 0,1.44931 -2.02317,3.77648 -3.28316,3.77648 -2.38666,0 -3.96504,-2.30073 -3.16089,-4.6075 0.45592,-1.30785 1.71634,-2.04139 4.589,-2.67069 2.85096,-0.62456 3.45014,-5.93158 0.82813,-7.33484 -1.99061,-1.06534 -5.68602,-0.57052 -8.54057,1.14358 -6.73589,4.04478 -7.57413,14.06942 -1.59086,19.02555 3.63094,3.00761 9.0086,3.62754 13.11964,1.51241 z m 144.05801,-0.20714 c 4.28706,-2.13431 7.29418,-8.10261 5.98079,-11.87023 -0.63825,-1.83089 -1.76588,-2.54411 -4.02235,-2.54411 -2.10655,0 -3.96792,1.70537 -3.96792,3.63538 0,1.67129 -1.97592,3.91759 -3.44604,3.91759 -1.64673,0 -3.2677,-1.69623 -3.2677,-3.41942 0,-2.06297 0.87755,-3.02885 3.11374,-3.42714 2.67393,-0.47625 4.10353,-1.98088 4.10353,-4.31889 0,-3.08324 -1.39194,-4.09741 -5.28352,-3.84962 -3.79221,0.24147 -6.58188,1.85962 -8.68516,5.03782 -1.1494,1.73681 -1.4172,2.7567 -1.55243,5.91218 -0.13882,3.23922 0.0158,4.14846 1.02672,6.03958 3.12157,5.83925 9.91787,7.91499 16.00034,4.88686 z M 140.55773,183.35048 c 2.89717,-2.49204 0.98285,-7.36645 -2.89301,-7.36645 -4.09325,0 -5.55868,6.54032 -1.80436,8.05298 1.87579,0.75577 3.25493,0.5542 4.69737,-0.68653 z m 156.84851,0.10566 c 2.52368,-0.75611 5.73362,-3.52203 7.02492,-6.05319 0.5848,-1.14631 1.04391,-3.08709 1.07732,-4.55417 0.05,-2.19793 -0.13459,-2.72245 -1.3163,-3.73892 -0.77962,-0.6706 -2.0261,-1.18233 -2.87994,-1.18233 -1.84248,0 -3.97728,1.9783 -3.97728,3.68569 0,0.6676 -0.47938,1.82324 -1.06529,2.56811 -1.4079,1.78985 -3.6885,1.63084 -5.16872,-0.36039 -0.95707,-1.28746 -0.98284,-1.5199 -0.30155,-2.71968 0.83095,-1.46333 1.59925,-1.96835 3.65307,-2.40125 2.16606,-0.45656 3.38602,-1.99163 3.38602,-4.26065 0,-4.83522 -6.83672,-5.52183 -11.65331,-1.17033 -2.82293,2.55035 -4.00598,5.10288 -4.02309,8.68011 -0.0394,8.24321 7.39842,13.85764 15.24415,11.507 z M 195.01897,162.94285 c 4.00769,-2.04457 6.61387,-6.00792 6.63407,-10.08879 0.0147,-2.97007 -1.41904,-4.56423 -4.10496,-4.56423 -2.34719,0 -3.75143,1.24971 -4.22185,3.75723 -0.40584,2.16332 -2.41971,3.95152 -3.95187,3.50903 -1.38017,-0.39858 -2.81618,-2.08982 -2.81618,-3.31668 0,-1.39736 2.24513,-3.44605 3.77648,-3.44605 3.36169,0 5.00778,-4.71028 2.47685,-7.08754 -2.4142,-2.26763 -8.16138,-1.06134 -11.35704,2.38377 -2.33208,2.51411 -3.17075,4.6918 -3.16896,8.22849 0.003,4.93442 2.51463,8.93865 6.76207,10.77843 2.5445,1.10214 7.66447,1.02324 9.97139,-0.15366 z"
   id="path206" /><g
   id="g6">
	<g
   id="g4">
		<path
   d="M225.464,204.264c-2.212,0-4,1.788-4,4c0,1.996-1.62,3.616-3.616,3.616c-1.996,0-3.616-1.62-3.616-3.616    c0-1.992,1.62-3.612,3.616-3.612c2.212,0,4-1.788,4-4c0-2.212-1.788-4-4-4c-6.404,0-11.616,5.208-11.616,11.612    s5.208,11.616,11.616,11.616c6.404,0,11.616-5.212,11.616-11.616C229.464,206.052,227.676,204.264,225.464,204.264z"
   id="path2"
   style="fill:#fdba74;fill-opacity:1" />
	</g>
</g>
<g
   id="g12">
	<g
   id="g10">
		<path
   d="M301.44,168.164c-2.212,0-4,1.788-4,4c0,1.996-1.62,3.616-3.616,3.616c-1.996,0-3.616-1.62-3.616-3.616    c0-1.996,1.62-3.616,3.616-3.616c2.212,0,4-1.788,4-4c0-2.212-1.788-4-4-4c-6.404,0-11.616,5.212-11.616,11.616    s5.208,11.616,11.616,11.616c6.408,0,11.616-5.208,11.616-11.616C305.44,169.952,303.652,168.164,301.44,168.164z"
   id="path8"
   style="fill:#fdba74;fill-opacity:1" />
	</g>
</g>
<g
   id="g18">
	<g
   id="g16">
		<path
   d="M197.556,148.284c-2.212,0-4,1.788-4,4c0,1.996-1.62,3.616-3.612,3.616c-1.996,0-3.616-1.62-3.616-3.616    c0-1.992,1.62-3.612,3.616-3.612c2.212,0,4-1.788,4-4c0-2.212-1.788-4-4-4c-6.404,0-11.616,5.208-11.616,11.612    s5.208,11.616,11.616,11.616c6.404,0,11.616-5.212,11.612-11.616C201.556,150.072,199.768,148.284,197.556,148.284z"
   id="path14"
   style="fill:#fdba74;fill-opacity:1" />
	</g>
</g>
<g
   id="g24">
	<g
   id="g22">
		<path
   d="M369.424,204.24c-2.212,0-4,1.788-4,4c0,1.992-1.62,3.612-3.616,3.612c-1.992,0-3.612-1.62-3.612-3.612    c0-1.996,1.62-3.616,3.612-3.616c2.212,0,4-1.788,4-4c0-2.212-1.788-4-4-4c-6.4,0-11.612,5.208-11.612,11.616    c0,6.4,5.208,11.612,11.612,11.612c6.408,0,11.616-5.212,11.616-11.612C373.424,206.028,371.636,204.24,369.424,204.24z"
   id="path20"
   style="fill:#fdba74;fill-opacity:1" />
	</g>
</g>
<g
   id="g30">
	<g
   id="g28">
		<path
   d="M265.404,308.212c-2.212,0-4,1.788-4,4c0,1.996-1.62,3.616-3.612,3.616c-1.996,0-3.616-1.62-3.616-3.616    c0-1.996,1.62-3.616,3.616-3.616c2.212,0,4-1.788,4-4c0-2.212-1.788-4-4-4c-6.404,0-11.616,5.212-11.616,11.616    s5.208,11.616,11.616,11.616c6.404,0,11.616-5.212,11.612-11.616C269.404,310,267.616,308.212,265.404,308.212z"
   id="path26"
   style="fill:#fdba74;fill-opacity:1" />
	</g>
</g>
<g
   id="g36">
	<g
   id="g34">
		<path
   d="M153.404,272.088c-2.212,0-4,1.788-4,4c0,1.996-1.62,3.616-3.612,3.616c-1.996,0-3.616-1.62-3.616-3.616    c0-1.996,1.62-3.616,3.616-3.616c2.212,0,4-1.788,4-4c0-2.212-1.788-4-4-4c-6.404,0-11.616,5.212-11.616,11.616    s5.208,11.616,11.616,11.616c6.404,0,11.616-5.212,11.612-11.616C157.404,273.876,155.616,272.088,153.404,272.088z"
   id="path32"
   style="fill:#fdba74;fill-opacity:1" />
	</g>
</g>
<g
   id="g42">
	<g
   id="g40">
		<path
   d="M361.464,368.128c-2.212,0-4,1.788-4,4c0,1.996-1.62,3.616-3.616,3.616c-1.996,0-3.616-1.62-3.616-3.616    c0-1.996,1.62-3.616,3.616-3.616c2.212,0,4-1.788,4-4c0-2.212-1.788-4-4-4c-6.404,0-11.616,5.212-11.616,11.616    s5.208,11.616,11.616,11.616c6.404,0,11.616-5.212,11.616-11.616C365.464,369.916,363.676,368.128,361.464,368.128z"
   id="path38"
   style="fill:#fdba74;fill-opacity:1" />
	</g>
</g>
<g
   id="g48">
	<g
   id="g46">
		<path
   d="M322.012,244.012c-2.212,0-4.02,1.808-4.02,4.02c0,2.212,1.808,4.016,4.02,4.016c1.516,0,2.916-0.876,3.596-2.232    c0.276-0.552,0.42-1.164,0.42-1.784C326.028,245.82,324.224,244.012,322.012,244.012z"
   id="path44"
   style="fill:#fdba74;fill-opacity:1" />
	</g>
</g>
<g
   id="g54">
	<g
   id="g52">
		<path
   d="M277.98,264.108c-2.212,0-4.02,1.808-4.02,4.02s1.808,4.02,4.02,4.02c1.636,0,3.12-1.016,3.732-2.536    c0.188-0.472,0.284-0.976,0.284-1.484C281.996,265.916,280.192,264.108,277.98,264.108z"
   id="path50"
   style="fill:#fdba74;fill-opacity:1" />
	</g>
</g>
<g
   id="g60">
	<g
   id="g58">
		<path
   d="M198.024,428.316c-2.212,0-4.02,1.808-4.02,4.02s1.808,4.016,4.02,4.016c1.256,0,2.464-0.608,3.22-1.616    c0.52-0.692,0.8-1.536,0.8-2.4C202.044,430.124,200.236,428.316,198.024,428.316z"
   id="path56"
   style="fill:#fdba74;fill-opacity:1" />
	</g>
</g>
<g
   id="g66">
	<g
   id="g64">
		<path
   d="M217.868,388.212c-2.212,0-4.02,1.804-4.02,4.016c0,2.212,1.808,4.02,4.02,4.02c1.404,0,2.724-0.76,3.448-1.96    c0.376-0.624,0.572-1.332,0.572-2.06C221.888,390.016,220.08,388.212,217.868,388.212z"
   id="path62"
   style="fill:#fdba74;fill-opacity:1" />
	</g>
</g>
<g
   id="g72">
	<g
   id="g70">
		<path
   d="M137.808,176.192c-2.212,0-4.016,1.808-4.016,4.02c0,2.212,1.804,4.016,4.016,4.016c1.512,0,2.92-0.872,3.596-2.224    c0.28-0.556,0.424-1.172,0.424-1.792C141.828,178,140.02,176.192,137.808,176.192z"
   id="path68"
   style="fill:#fdba74;fill-opacity:1" />
	</g>
</g>
<g
   id="g78">
	<g
   id="g76">
		<path
   d="M217.848,252.064c-2.212,0-4.016,1.808-4.016,4.02s1.804,4.016,4.016,4.016c1.512,0,2.916-0.868,3.596-2.224    c0.28-0.556,0.424-1.172,0.424-1.792C221.868,253.872,220.06,252.064,217.848,252.064z"
   id="path74"
   style="fill:#fdba74;fill-opacity:1" />
	</g>
</g>
<g
   id="g84">
	<g
   id="g82">
		<path
   d="M153.94,344.064c-2.212,0-4.02,1.808-4.02,4.02s1.808,4.016,4.02,4.016c1.516,0,2.92-0.872,3.596-2.232    c0.276-0.552,0.42-1.164,0.42-1.784C157.956,345.872,156.152,344.064,153.94,344.064z"
   id="path80"
   style="fill:#fdba74;fill-opacity:1" />
	</g>
</g>
<g
   id="g90">
	<g
   id="g88">
		<path
   d="M301.96,424.084c-2.212,0-4.02,1.804-4.02,4.016c0,2.212,1.808,4.02,4.02,4.02c1.408,0,2.728-0.756,3.448-1.96    c0.376-0.624,0.572-1.332,0.572-2.06C305.98,425.888,304.172,424.084,301.96,424.084z"
   id="path86"
   style="fill:#fdba74;fill-opacity:1" />
	</g>
</g>
<g
   id="g96">
	<g
   id="g94">
		<path
   d="M369.896,308.196c-2.212,0-4.016,1.804-4.016,4.016c0,2.212,1.804,4.016,4.016,4.016c1.512,0,2.916-0.872,3.596-2.224    c0.28-0.556,0.424-1.172,0.424-1.792C373.916,310,372.108,308.196,369.896,308.196z"
   id="path92"
   style="fill:#fdba74;fill-opacity:1" />
	</g>
</g>

<g
   id="g108">
	<g
   id="g106">
		<path
   d="M366.032,16H212c-2.212,0-4,1.788-4,4s1.788,4,4,4h154.032c0.688,0,1.968,0,1.968,3.916v8.168    C368,40,366.72,40,366.032,40h-216.24c-2.596,0-5.792-2.16-5.792-3.916v-8.168c0-1.756,3.196-3.916,5.792-3.916H180    c2.212,0,4-1.788,4-4s-1.788-4-4-4h-30.208C143.28,16,136,21.096,136,27.916v8.168C136,42.908,143.28,48,149.792,48h216.24    c4.82,0,9.968-3.128,9.968-11.916v-8.168C376,19.128,370.852,16,366.032,16z"
   id="path104" />
	</g>
</g>
<g
   id="g114">
	<g
   id="g112">
		<path
   d="M338.04,0H174.124C168.228,0,160,3.884,160,10.212V20c0,2.212,1.788,4,4,4c2.212,0,4-1.788,4-4l-0.056-9.468    C168.352,9.688,171.312,8,174.124,8h163.92C339.18,8,340,8,340,10.212V20c0,2.212,1.788,4,4,4c2.212,0,4-1.788,4-4v-9.788    C348,4.008,344.088,0,338.04,0z"
   id="path110" />
	</g>
</g>

<g
   id="g126">
	<g
   id="g124">
		<path
   d="M348,80.416V44c0-2.212-1.788-4-4-4c-2.212,0-4,1.788-4,4v36.416c0,1.764,0.056,3.46,0.156,5.18    c0.124,2.124,1.888,3.76,3.988,3.76c0.084,0,0.16-0.004,0.244-0.008c2.2-0.132,3.884-2.024,3.752-4.232    C348.048,83.552,348,82.012,348,80.416z"
   id="path122" />
	</g>
</g>
<g
   id="g132">
	<g
   id="g130">
		<path
   d="M368.144,97.168c-3.324-1.276-5.676-1.236-9.572-1.212l-2.744,0.02c-9.032,0-13.544,2.088-17.908,4.108    c-3.696,1.708-7.184,3.328-14.168,3.772c-0.236,0.016-0.46,0.048-0.684,0.104c-6.312-0.136-9.48-1.696-13.124-3.484    c-4.3-2.108-9.168-4.504-18.752-4.504c-9.444,0-14.244,2.34-18.484,4.404c-3.956,1.928-7.38,3.596-14.98,3.596    c-7.612,0-11.104-1.672-15.156-3.608c-4.3-2.06-9.18-4.392-18.604-4.392c-9.42,0-14.336,2.328-18.676,4.388    c-4.092,1.936-7.628,3.612-15.244,3.612c-7.62,0-11.176-1.676-15.288-3.616c-4.356-2.056-9.292-4.384-18.708-4.384    c-4.224,0-7.768,0.448-11.156,1.4c-2.124,0.6-3.36,2.812-2.764,4.936c0.604,2.124,2.816,3.356,4.936,2.764    c2.66-0.752,5.516-1.1,8.984-1.1c7.624,0,11.18,1.676,15.292,3.616c4.356,2.056,9.288,4.384,18.704,4.384    c9.42,0,14.332-2.328,18.668-4.388c4.092-1.936,7.628-3.612,15.248-3.612c7.612,0,11.104,1.672,15.156,3.608    c4.3,2.06,9.18,4.392,18.604,4.392c9.448,0,14.248-2.34,18.488-4.408c3.956-1.924,7.376-3.592,14.976-3.592    c7.724,0,11.2,1.708,15.224,3.684c4.12,2.024,8.784,4.316,17.588,4.316c0.424,0,0.84-0.068,1.232-0.2    c7.864-0.632,12.208-2.644,16.056-4.424c3.904-1.808,7.276-3.372,14.544-3.372l2.828-0.02c3.728-0.04,4.796-0.024,6.624,0.68    c2.06,0.788,4.376-0.236,5.164-2.304C371.24,100.268,370.208,97.956,368.144,97.168z"
   id="path128" />
	</g>
</g>
<g
   id="g134">
</g>
<g
   id="g136">
</g>
<g
   id="g138">
</g>
<g
   id="g140">
</g>
<g
   id="g142">
</g>
<g
   id="g144">
</g>
<g
   id="g146">
</g>
<g
   id="g148">
</g>
<g
   id="g150">
</g>
<g
   id="g152">
</g>
<g
   id="g154">
</g>
<g
   id="g156">
</g>
<g
   id="g158">
</g>
<g
   id="g160">
</g>
<g
   id="g162">
</g>
<path
   style="fill:#924004;fill-opacity:1;stroke:#92400e;stroke-width:0.475777;stroke-opacity:1"
   d="m 147.79111,39.456556 c -0.77927,-0.25944 -1.70859,-0.855635 -2.45472,-1.574808 l -1.20069,-1.15731 v -4.70322 -4.703219 l 0.88329,-0.977689 c 0.4858,-0.537729 1.47713,-1.246146 2.20294,-1.574259 l 1.31967,-0.596571 16.49063,-0.125883 c 12.63335,-0.09644 16.62074,-0.200285 17.04687,-0.44397 0.30594,-0.174948 0.87052,-0.730126 1.25464,-1.233728 0.57778,-0.757513 0.69839,-1.167759 0.69839,-2.375548 0,-1.636229 -0.45463,-2.46852 -1.87729,-3.436775 -0.81115,-0.552065 -1.00105,-0.566472 -7.46687,-0.566472 h -6.63455 v -2.730399 c 0,-3.138266 -0.0131,-3.115088 2.3986,-4.2443308 l 1.50376,-0.7041154 83.55853,-0.064432 c 61.75697,-0.047621 83.64783,0.00969 83.90082,0.2196514 0.25951,0.2153751 0.3423,1.1595589 0.3423,3.9038548 v 3.619771 h -64.5406 -64.54059 l -0.83232,0.566472 c -1.42266,0.968255 -1.87729,1.800546 -1.87729,3.436775 0,1.20918 0.12042,1.617788 0.70117,2.379194 0.38565,0.505607 1.02958,1.089108 1.43095,1.296669 0.64385,0.332944 9.88555,0.377383 78.48178,0.377383 68.8943,0 77.81376,0.04326 78.29413,0.379724 0.89831,0.629201 1.13935,2.611937 1.04211,8.572024 -0.0814,4.986475 -0.1247,5.412288 -0.61819,6.073029 l -0.5307,0.710562 -108.86138,0.04756 c -100.78885,0.04403 -108.95436,0.01659 -110.11539,-0.36994 z"
   id="path1459" /><path
   style="fill:#f0f9ff;fill-opacity:1;stroke:#f0f9ff;stroke-width:0.475777;stroke-opacity:1"
   d="m 186.05464,103.70298 c -4.57641,-0.66536 -6.06699,-1.13275 -11.64279,-3.65066 -2.18166,-0.985196 -4.00104,-1.823084 -4.04306,-1.861974 -0.042,-0.03889 0.10266,-1.026319 0.32152,-2.194281 1.18021,-6.298373 1.21138,-6.955549 1.32006,-27.830578 l 0.10388,-19.952409 h 83.79362 83.79361 l 0.094,18.819465 0.094,18.819465 0.62637,1.258827 c 0.48035,0.965357 0.88826,1.390888 1.74972,1.825299 0.61784,0.31156 1.46755,0.563985 1.88824,0.560944 1.24403,-0.009 2.77003,-0.849767 3.40394,-1.875451 l 0.57686,-0.933375 -0.0501,-19.237587 -0.0501,-19.237587 h 5.91794 5.91794 l 0.0963,19.322996 c 0.10096,20.253664 0.14338,21.099976 1.30964,26.128784 0.21168,0.912778 0.38488,1.765862 0.38488,1.89574 0,0.136331 -1.56962,0.236232 -3.71354,0.236355 -4.78513,2.52e-4 -8.61648,0.365088 -11.77728,1.121419 -2.84181,0.680003 -3.89678,1.068417 -8.55277,3.148918 -5.98442,2.67409 -9.98029,3.62051 -15.23181,3.60762 -4.20358,-0.0103 -6.71162,-0.67706 -12.13397,-3.22576 -2.2577,-1.061196 -5.23785,-2.306486 -6.62255,-2.767304 -8.54795,-2.84469 -20.09302,-2.337058 -28.00891,1.231538 -1.41933,0.639854 -3.71214,1.672416 -5.09515,2.294576 -4.65388,2.0936 -8.74252,2.82026 -14.47961,2.57342 -5.3297,-0.22931 -7.49485,-0.81286 -13.73234,-3.70114 -7.06533,-3.271618 -10.85507,-4.122117 -18.36775,-4.122117 -7.50359,0 -11.33185,0.864503 -18.50476,4.178767 -6.18779,2.85909 -8.56168,3.44634 -14.47651,3.5812 -2.28477,0.0521 -4.49401,0.0453 -4.90943,-0.0151 z"
   id="path1707" /><path
   style="fill:#f0f9ff;fill-opacity:1;stroke:#f0f9ff;stroke-width:0.475777;stroke-opacity:1"
   d="m 150.17807,96.175218 c 0,-0.01342 0.23485,-1.095396 0.52189,-2.404387 1.26959,-5.789708 1.30879,-6.522746 1.4232,-26.612406 l 0.10789,-18.945347 h 5.77118 5.77117 l -0.008,18.819465 c -0.008,19.494748 -0.0822,21.263619 -1.12943,26.954685 -0.3267,1.775515 -0.51566,2.312292 -0.77847,2.21144 -0.71043,-0.272617 -7.5989,-0.428883 -9.60251,-0.217835 -1.14239,0.120334 -2.07707,0.207804 -2.07707,0.194385 z"
   id="path1820" /><g
   id="g120">
	<g
   id="g118">
		<path
   d="M399.956,144.216c-18.34-2.788-33.464-13.184-42.584-29.276c-1.092-1.92-3.52-2.592-5.452-1.508    c-1.924,1.088-2.596,3.532-1.508,5.452c10.36,18.276,27.524,30.08,48.34,33.24c8.584,1.304,17.248,9.32,17.248,24.292v283.668    C416,473.72,406.452,484,393.792,484h-272C108.056,484,96,472.824,96,460.084V176.416c0-18.8,14.744-23.564,19.256-24.584    c35-7.852,56.744-35.22,56.744-71.416V44c0-2.212-1.788-4-4-4c-2.212,0-4,1.788-4,4v36.416c0,32.248-19.348,56.624-50.492,63.612    C101.176,146.796,88,156.756,88,176.416v283.668C88,477.388,103.476,492,121.792,492h272c17.224,0,30.208-13.72,30.212-31.916    V176.416C424.004,156.8,411.54,145.968,399.956,144.216z"
   id="path116" />
	</g>
</g><g
   id="g102">
	<g
   id="g100">
		<path
   d="M402.6,124.464c-21.016-3.196-34.6-20.484-34.6-44.048V44c0-2.212-1.788-4-4-4H148c-2.212,0-4,1.788-4,4v36.416    c0,23.048-12.712,39.124-34.876,44.096C84.14,130.124,68,150.496,68,176.416v283.668C68,488.228,92.632,512,121.792,512h272    C421.944,512,444,489.196,444,460.084V176.416C444,149.532,426.976,128.168,402.6,124.464z M436,460.084    C436,484.712,417.46,504,393.792,504h-272C96.968,504,76,483.892,76,460.084V176.416c0-26.768,18.788-40.484,34.876-44.096    C136.624,126.536,152,107.136,152,80.416V48h208v32.416c0,27.32,16.636,48.196,41.4,51.952c20.372,3.1,34.6,21.212,34.6,44.048    V460.084z"
   id="path98" />
	</g>
</g></svg>
