<?xml version="1.0" encoding="UTF-8"?>
<!-- Created with Inkscape (http://www.inkscape.org/) -->
<svg width="98.698mm" height="41.951mm" version="1.1" viewBox="0 0 98.698 41.951" xmlns="http://www.w3.org/2000/svg">
 <g>
  <path transform="translate(-56.073 -93.464)" d="m154.77 134.04q0 0.62011-0.62012 0.62011-0.44648 0-1.3643-0.0744-0.89297-0.0744-1.3394-0.0744-0.44649 0-1.3643 0.0744t-1.3643 0.0744q-0.62011 0-0.62011-0.81855 0-3.1502 0.19843-9.4506 0.19844-6.3004 0.19844-9.4506 0-0.47129-0.19844-0.47129-0.22324 0-0.34726 0.27285-1.265 2.7037-5.9779 14.436-0.76895 2.2572-2.2076 5.6307-0.17363 0.32246-1.7859 0.32246-2.3316 0-2.5797-0.42168-0.84336-2.0092-2.4061-5.6307-2.0588-4.9113-6.3252-14.635-0.0744-0.17363-0.32246-0.34726-0.19844 0.14883-0.19844 0.5457 0 3.1998 0.0992 9.5994 0.12402 6.3996 0.12402 9.5994 0 0.81855-0.62012 0.81855-0.42168 0-1.2898-0.0744t-1.2898-0.0744q-0.44649 0-1.3395 0.0744-0.86816 0.0744-1.3146 0.0744-0.62011 0-0.62011-0.47129 0-2.7533 0.24804-8.2352 0.27286-5.5066 0.27286-8.26 0-2.8525-0.27286-8.5576-0.24804-5.7299-0.24804-8.5824 0-0.47129 0.57051-0.5457 3.3734-0.44649 5.085-0.44649 0.24804 0 0.69453 1.017 6.0027 13.196 10.319 23.564 1.017 2.4309 1.2154 2.4309 0.24804 0 1.0666-1.9844 3.3734-8.0367 9.3514-23.862 0.37207-0.96738 0.81855-0.96738 0.84336 0 2.5301 0.09922 1.7115 0.09922 2.5549 0.09922 0.62012 0 0.62012 0.59531 0 2.8525-0.19844 8.5824-0.17363 5.7051-0.17363 8.5576 0 2.7285 0.19844 8.1855 0.22324 5.457 0.22324 8.1608z" stroke-width=".26458"/>
  <path transform="translate(-56.073 -93.464)" d="m83.532 133.5q0 1.1658-0.71934 1.1658h-5.7051q-0.71934 0-3.7455-5.2834-2.5549-4.4648-3.3982-6.4492-0.84336-1.91-0.96738-2.1332-0.74414-1.2402-1.7363-1.3146-0.29766-0.0248-1.6619-0.0248-3.1254 0-3.1254 0.76895 0 2.282 0.14883 6.8213 0.17363 4.5393 0.17363 6.7965 0 0.81855-0.62012 0.81855-0.47129 0-1.4139-0.0744t-1.4139-0.0744q-0.44648 0-1.3395 0.0744-0.86816 0.0744-1.3146 0.0744-0.62012 0-0.62012-0.5705 0-2.7285 0.24805-8.1856 0.27285-5.4818 0.27285-8.2104 0-2.8774-0.27285-8.632-0.24805-5.7795-0.24805-8.6568 0-0.5457 0.62012-0.5457 0.44648 0 1.3643 0.07441 0.91777 0.07442 1.3891 0.07442 0.44648 0 1.3395-0.07442 0.89297-0.07441 1.3395-0.07441 0.57051 0 0.57051 0.44648 0 2.1084-0.14883 6.35-0.12402 4.2416-0.12402 6.3748 0 0.96738 0.12402 1.2154 0.19844 0.44648 1.017 0.44648 4.8121 0 7.0445-1.7859 1.91-1.5875 3.6215-5.8291 1.2402-3.3238 2.4805-6.6477 0.17363-0.42167 0.76894-0.5705 0.39688-0.09922 2.6293-0.09922 2.7285 0 2.7285 0.76894 0 0.44649-1.141 4.0184-1.3395 4.1672-3.4727 7.3422-1.4139 2.158-3.7455 4.3408-0.59531 0.5209-0.59531 0.94258 0 0.44648 2.0092 4.44 1.7363 3.4478 3.1502 5.5314 1.5627 1.91 4.3656 5.8787 0.12402 0.22325 0.12402 0.47129z" stroke-width=".26458"/>
  <rect transform="rotate(15 326.93 -259.69)" x="127.23" y="62.67" width="1.3" height="15.773" fill="#db2777" style="mix-blend-mode:normal"/>
  <path transform="matrix(.26458 0 0 .26458 -56.073 -93.464)" d="m375.49 491.69c-7.5713-0.42326-13.287-1.8139-16.742-4.0734-4.0461-2.6461-6.5712-7.1728-7.7964-13.976-0.45481-2.5256-0.45683-2.608-0.45038-18.344 6e-3 -14.874 0.35508-40.065 0.59805-43.168l0.11001-1.4053 0.91123-0.15596c0.50117-0.0858 2.7554-0.15025 5.0094-0.14328 3.7536 0.0116 4.4756 0.0735 8.5867 0.73554 8.6229 1.3887 11.388 1.3953 21.467 0.0511 7.7958-1.0397 8.9035-1.1381 12.783-1.1359 3.4765 2e-3 8.4773 0.46216 8.8432 0.81384 0.33764 0.32453 1.0014 56.405 0.71485 60.399-0.40524 5.6493-1.6363 9.5158-4.0847 12.829-2.5424 3.4407-6.9884 5.7313-13.182 6.7912-4.353 0.74494-11.484 1.0776-16.768 0.78224z" fill="#fb923c" stroke="#fb923c" stroke-width=".051634" style="mix-blend-mode:normal"/>
  <path transform="translate(-56.073 -93.464)" d="m90.954 109.75c0.38645-0.5995 0.93687-1.0922 1.5754-1.4101 0.63851-0.31789 1.3634-0.46016 2.0747-0.4072 0.73963 0.0551 1.447 0.31418 2.1397 0.57922 0.69271 0.26504 1.3912 0.54094 2.1272 0.63229 1.1095 0.13771 2.2254-0.15262 3.2896-0.49535 1.0642-0.34273 2.1252-0.74379 3.2394-0.8373 1.6544-0.13886 3.357 0.44718 4.5754 1.575" fill="none" stroke="#fb923c" stroke-width=".40439px" style="mix-blend-mode:normal"/>
  <g fill="#fdba74">
   <circle transform="translate(-56.073 -93.464)" cx="97.563" cy="124.8" r="1.5" style="mix-blend-mode:normal"/>
   <circle transform="translate(-56.073 -93.464)" cx="102.26" cy="124.77" r=".5" style="mix-blend-mode:normal"/>
   <ellipse transform="translate(-56.073 -93.464)" cx="101.5" cy="115.31" rx=".064543" ry=".16781" style="mix-blend-mode:normal"/>
  </g>
  <g>
   <path transform="translate(-56.073 -93.464)" d="m96.585 108.72c-0.47175-0.0776-0.86198-0.1245-1.2049-0.14473-0.57516-0.034-1.9785-0.0164-2.2508 0.0282l-0.07836 0.0128 0.0053-0.15228 0.0053-0.15227 0.1602-0.051c0.23686-0.0754 0.57319-0.1379 0.86211-0.16024 0.53321-0.0412 1.102 0.0451 1.8079 0.27428 0.23339 0.0758 1.0489 0.37635 1.0651 0.39254 0.01384 0.0138-0.04792 6e-3 -0.372-0.0473z" fill="#fb923c" stroke="#fb923c" stroke-width=".5" style="mix-blend-mode:normal"/>
   <path transform="matrix(.26458 0 0 .26458 -56.073 -93.464)" d="m387.74 410.83c3.0894-1.0247 4.5165-1.4641 5.9766-1.8401 3.7915-0.97646 6.8125-1.1544 10.125-0.59635 1.4508 0.24445 2.9135 0.64716 4.3163 1.1884l0.3655 0.14102 0.0173 0.0975c0.01 0.0536 0.0179 0.28258 0.0187 0.50874 1e-3 0.37157-2e-3 0.40973-0.0386 0.39585-0.16063-0.0616-1.0186-0.2023-1.7895-0.29338-3.445-0.40701-7.8928-0.51476-11.112-0.26919-1.4826 0.11312-3.274 0.32193-7.1102 0.82883-1.0662 0.14089-1.9554 0.25507-1.9759 0.25373-0.0205-1e-3 0.52252-0.18813 1.2068-0.41508z" fill="#fb923c" stroke="#fb923c" stroke-width="1.8898" style="mix-blend-mode:normal"/>
   <path transform="translate(-56.073 -93.464)" d="m114.79 100.41q0 2.8773-0.24805 8.632-0.22324 5.7299-0.22324 8.6072 0 0.94258 0.0248 2.8277 0.0248 1.8604 0.0248 2.7781 0 5.1842-0.96738 7.1934-1.4883 3.0758-5.7795 4.1672-2.6293 0.66973-7.4166 0.66973-8.6816 0-11.385-2.8773-2.0836-2.2324-2.0836-8.9297 0-0.81856 0.02481-2.7533 0.02481-1.9596 0.02481-3.0758 0-2.927-0.24805-10.79 0-2.034-0.22324-6.0772-0.02481-0.29766-0.02481-0.39687 0-0.5209 0.64492-0.5209 1.017 0 2.7533 0.02481 2.0092 0.0248 2.7285 0.0248 0.57051 0 0.57051 0.44648 0 3.7703-0.17363 11.336-0.14883 7.5654-0.14883 11.336 0 4.2664 1.91 5.7795 1.6371 1.3394 6.0275 1.3394 3.9936 0 5.6803-1.0914 2.1332-1.3642 2.1332-5.1098 0-3.9191-0.12401-11.757-0.12403-7.8631-0.12403-11.782 0-0.39687 0.71933-0.49609 0.5209-0.07441 1.4883 0 1.141 0.09922 1.0914 0.09922 0.44649 0 1.3394-0.07442 0.91779-0.07441 1.3643-0.07441 0.62011 0 0.62011 0.5457z" fill="#a855f7" stroke="#a855f7" stroke-width=".26458" style="mix-blend-mode:normal"/>
  </g>
  <rect transform="rotate(15 326.93 -259.69)" x="127.23" y="62.67" width="5" height="1.3" fill="#db2777" style="mix-blend-mode:normal"/>
  <g fill="#fdba74">
   <circle transform="translate(-56.073 -93.464)" cx="103.31" cy="119.25" r="2.5" style="mix-blend-mode:normal"/>
   <circle transform="translate(-56.073 -93.464)" cx="103.35" cy="125.88" r="2.5" style="mix-blend-mode:normal"/>
   <circle transform="translate(-56.073 -93.464)" cx="98.321" cy="117.14" r="1.5" style="mix-blend-mode:normal"/>
   <circle transform="translate(-56.073 -93.464)" cx="95.394" cy="119.87" r="1.5" style="mix-blend-mode:normal"/>
   <circle transform="translate(-56.073 -93.464)" cx="101.33" cy="114.76" r="1" style="mix-blend-mode:normal"/>
   <circle transform="translate(-56.073 -93.464)" cx="95.472" cy="116.02" r="1" style="mix-blend-mode:normal"/>
   <circle transform="translate(-56.073 -93.464)" cx="104.87" cy="115.66" r="1" style="mix-blend-mode:normal"/>
   <circle transform="translate(-56.073 -93.464)" cx="99.18" cy="111" r=".5" style="mix-blend-mode:normal"/>
   <circle transform="translate(-56.073 -93.464)" cx="98.002" cy="113.36" r=".5" style="mix-blend-mode:normal"/>
   <circle transform="translate(-56.073 -93.464)" cx="99.861" cy="112.67" r=".5" style="mix-blend-mode:normal"/>
   <circle transform="translate(-56.073 -93.464)" cx="99.37" cy="114.71" r=".5" style="mix-blend-mode:normal"/>
   <circle transform="translate(-56.073 -93.464)" cx="97.769" cy="119.95" r=".5" style="mix-blend-mode:normal"/>
   <circle transform="translate(-56.073 -93.464)" cx="99.602" cy="121.78" r=".5" style="mix-blend-mode:normal"/>
   <circle transform="translate(-56.073 -93.464)" cx="97.124" cy="127.36" r=".5" style="mix-blend-mode:normal"/>
   <circle transform="translate(-56.073 -93.464)" cx="102.73" cy="128.96" r=".5" style="mix-blend-mode:normal"/>
   <circle transform="translate(-56.073 -93.464)" cx="100.3" cy="127.02" r=".5" style="mix-blend-mode:normal"/>
   <circle transform="translate(-56.073 -93.464)" cx="99.964" cy="129.16" r=".5" style="mix-blend-mode:normal"/>
   <circle transform="translate(-56.073 -93.464)" cx="100.64" cy="122.55" r=".5" style="mix-blend-mode:normal"/>
   <circle transform="translate(-56.073 -93.464)" cx="103.78" cy="122.63" r=".5" style="mix-blend-mode:normal"/>
   <circle transform="translate(-56.073 -93.464)" cx="97.176" cy="125.19" r=".5" style="mix-blend-mode:normal"/>
   <circle transform="translate(-56.073 -93.464)" cx="97.563" cy="121.91" r=".5" style="mix-blend-mode:normal"/>
   <circle transform="translate(-56.073 -93.464)" cx="95.206" cy="111.37" r="1.75" style="mix-blend-mode:normal"/>
   <circle transform="translate(-56.073 -93.464)" cx="103.5" cy="111.4" r="1.5" style="mix-blend-mode:normal"/>
  </g>
 </g>
</svg>
